<svg width="39" height="43" viewBox="0 0 39 43" fill="none" xmlns="http://www.w3.org/2000/svg">
<g opacity="0.3">
<path d="M15.7266 34.7866H13.9495C13.2091 34.7866 12.6167 35.3787 12.6167 36.1189V40.8557C12.6167 41.5958 13.2091 42.1879 13.9495 42.1879H15.7266C16.4671 42.1879 17.0595 41.5958 17.0595 40.8557V36.1189C17.0595 35.3787 16.4671 34.7866 15.7266 34.7866ZM16.319 40.8557C16.319 41.1814 16.0524 41.4478 15.7266 41.4478H13.9495C13.6237 41.4478 13.3572 41.1814 13.3572 40.8557V40.2636H16.319V40.8557Z" fill="white"/>
<path d="M15.7269 34.0461H13.9498C12.7946 34.0461 11.8765 34.9639 11.8765 36.1185V40.8554C11.8765 42.01 12.7946 42.9277 13.9498 42.9277H15.7269C16.882 42.9277 17.8002 42.01 17.8002 40.8554V40.2632C17.8002 40.2632 17.8002 38.6054 17.8002 36.1185C17.8002 34.9639 16.882 34.0461 15.7269 34.0461ZM16.3192 40.8554C16.3192 41.181 16.0527 41.4475 15.7269 41.4475H13.9498C13.624 41.4475 13.3574 41.181 13.3574 40.8554V36.1185C13.3574 35.7929 13.624 35.5264 13.9498 35.5264H15.7269C16.0527 35.5264 16.3192 35.7929 16.3192 36.1185V40.8554Z" fill="black"/>
<path d="M13.4465 2.57566C11.9359 0.976972 9.80347 0 7.43405 0C5.5089 0 3.76144 0.651314 2.33979 1.74671C0.858904 2.90131 0 4.70723 0 6.60197V9.97697C0 11.8717 0.829286 13.6776 2.33979 14.8322C3.73183 15.9276 5.5089 16.5789 7.43405 16.5789C9.06303 16.5789 10.6032 16.1053 11.8767 15.2763V40.2631H17.8003C17.8003 40.2631 17.8003 38.6052 17.8003 36.1184V13.6184C17.8003 8.28947 15.9343 5.15131 13.4465 2.57566ZM1.6882 12.0197C1.27355 12.0197 1.06623 10.3322 1.06623 8.25986C1.06623 6.18749 1.27355 4.5 1.6882 4.5C2.10285 4.5 2.42864 6.18749 2.42864 8.25986C2.42864 10.3618 2.10285 12.0197 1.6882 12.0197ZM6.10125 8.88157C5.6866 8.88157 5.36081 8.55592 5.36081 8.14144C5.36081 7.72697 5.6866 7.40131 6.10125 7.40131C6.5159 7.40131 6.8417 7.72697 6.8417 8.14144C6.8417 8.55592 6.5159 8.88157 6.10125 8.88157ZM11.7582 5.32894C11.5805 5.03289 11.3436 4.76644 11.1067 4.5C10.8697 4.26315 10.5735 4.02631 10.2773 3.84868C9.95155 3.61184 9.74423 3.19737 9.89232 2.8125C9.98117 2.57566 10.2477 2.42763 10.5143 2.42763C10.692 2.42763 10.8697 2.48684 11.0474 2.60526C11.4325 2.8421 11.7879 3.13816 12.1137 3.46381C12.4394 3.78947 12.7356 4.14474 12.9726 4.5296C13.2688 5.00329 13.1503 5.56579 12.7652 5.71381C12.6764 5.74342 12.5875 5.77302 12.4987 5.77302C12.2321 5.74342 11.9359 5.56579 11.7582 5.32894Z" fill="black"/>
<path d="M24.6125 34.7866H22.8354C22.0949 34.7866 21.5026 35.3787 21.5026 36.1189V40.8557C21.5026 41.5958 22.0949 42.1879 22.8354 42.1879H24.6125C25.353 42.1879 25.9453 41.5958 25.9453 40.8557V36.1189C25.9453 35.3787 25.353 34.7866 24.6125 34.7866ZM25.2049 40.8557C25.2049 41.1814 24.9383 41.4478 24.6125 41.4478H22.8354C22.5096 41.4478 22.243 41.1814 22.243 40.8557V40.2636H25.2049V40.8557Z" fill="white"/>
<path d="M24.6125 34.0461H22.8355C21.6804 34.0461 20.7622 34.9639 20.7622 36.1185C20.7622 38.6054 20.7622 40.2632 20.7622 40.2632V40.8554C20.7622 42.01 21.6804 42.9277 22.8355 42.9277H24.6125C25.7676 42.9277 26.6858 42.01 26.6858 40.8554V36.1185C26.6858 34.9639 25.7676 34.0461 24.6125 34.0461ZM25.2049 40.8554C25.2049 41.181 24.9383 41.4475 24.6125 41.4475H22.8355C22.5097 41.4475 22.2431 41.181 22.2431 40.8554V36.1185C22.2431 35.7929 22.5097 35.5264 22.8355 35.5264H24.6125C24.9383 35.5264 25.2049 35.7929 25.2049 36.1185V40.8554Z" fill="black"/>
<path d="M36.2228 1.74671C34.8308 0.651314 33.0537 0 31.1285 0C28.7591 0 26.6266 0.976972 25.1161 2.57566C22.6283 5.15131 20.7623 8.28947 20.7623 13.6184V36.1184C20.7623 38.6052 20.7623 40.2631 20.7623 40.2631H26.6859V15.2763C27.9594 16.1053 29.4996 16.5789 31.1285 16.5789C33.0537 16.5789 34.8012 15.6316 36.2228 14.5362C37.7037 13.3816 38.5626 11.546 38.5626 9.68091V6.30592C38.533 4.41118 37.7037 2.90131 36.2228 1.74671ZM28.2852 3.84868C27.9891 4.02631 27.7225 4.26315 27.4559 4.5C27.219 4.73684 26.9821 5.03289 26.8044 5.32894C26.6267 5.59539 26.3601 5.77302 26.0343 5.77302C25.9454 5.77302 25.8566 5.74342 25.7677 5.71381C25.3827 5.56579 25.2642 5.00329 25.5604 4.5296C25.7974 4.14474 26.0935 3.78947 26.4193 3.46381C26.7451 3.13816 27.1005 2.8421 27.4856 2.60526C27.6633 2.48684 27.841 2.42763 28.0187 2.42763C28.3149 2.42763 28.5518 2.57566 28.6406 2.8125C28.8184 3.16776 28.611 3.61184 28.2852 3.84868ZM32.4613 8.88157C32.0467 8.88157 31.7209 8.55592 31.7209 8.14144C31.7209 7.72697 32.0467 7.40131 32.4613 7.40131C32.876 7.40131 33.2018 7.72697 33.2018 8.14144C33.2018 8.55592 32.876 8.88157 32.4613 8.88157ZM36.8744 11.7237C36.4597 11.7237 36.134 10.0362 36.134 7.96381C36.134 5.89144 36.4597 4.20394 36.8744 4.20394C37.289 4.20394 37.4964 5.89144 37.4964 7.96381C37.4964 10.0658 37.289 11.7237 36.8744 11.7237Z" fill="black"/>
</g>
</svg>
