<svg width="24" height="25" viewBox="0 0 24 25" fill="none" xmlns="http://www.w3.org/2000/svg">
<path d="M2.28571 16.0181V2.29709H0V0.0102539H3.42857C3.73167 0.0102539 4.02236 0.130721 4.23669 0.345153C4.45101 0.559585 4.57142 0.850418 4.57142 1.15367V14.8747H18.7863L21.072 5.72734H6.85713V3.44051H22.5371C22.7108 3.44051 22.8823 3.48014 23.0384 3.55638C23.1945 3.63261 23.3312 3.74346 23.4381 3.88048C23.5449 4.0175 23.6192 4.17709 23.6552 4.34713C23.6911 4.51717 23.6879 4.69318 23.6457 4.86177L20.7885 16.2959C20.7266 16.5432 20.5839 16.7627 20.3831 16.9195C20.1822 17.0763 19.9347 17.1615 19.68 17.1615H3.42857C3.12546 17.1615 2.83477 17.041 2.62045 16.8266C2.40612 16.6122 2.28571 16.3213 2.28571 16.0181ZM4.57142 24.022C3.96521 24.022 3.38383 23.7811 2.95518 23.3522C2.52653 22.9233 2.28571 22.3417 2.28571 21.7352C2.28571 21.1287 2.52653 20.547 2.95518 20.1181C3.38383 19.6893 3.96521 19.4483 4.57142 19.4483C5.17763 19.4483 5.75901 19.6893 6.18766 20.1181C6.61632 20.547 6.85713 21.1287 6.85713 21.7352C6.85713 22.3417 6.61632 22.9233 6.18766 23.3522C5.75901 23.7811 5.17763 24.022 4.57142 24.022ZM18.2857 24.022C17.6795 24.022 17.0981 23.7811 16.6694 23.3522C16.2408 22.9233 16 22.3417 16 21.7352C16 21.1287 16.2408 20.547 16.6694 20.1181C17.0981 19.6893 17.6795 19.4483 18.2857 19.4483C18.8919 19.4483 19.4733 19.6893 19.9019 20.1181C20.3306 20.547 20.5714 21.1287 20.5714 21.7352C20.5714 22.3417 20.3306 22.9233 19.9019 23.3522C19.4733 23.7811 18.8919 24.022 18.2857 24.022Z" fill="white"/>
</svg>
