<svg width="37" height="44" viewBox="0 0 37 44" fill="none" xmlns="http://www.w3.org/2000/svg">
<path opacity="0.3" d="M20.5556 6.30004C29.8056 7.31821 37 15.1337 37 24.625V43.0626H0V24.625C0 15.1337 7.19444 7.31821 16.4444 6.30004V0.0415039H20.5556V6.30004ZM32.8889 38.9653V24.625C32.8889 20.8217 31.3729 17.1741 28.6745 14.4848C25.976 11.7955 22.3162 10.2846 18.5 10.2846C14.6838 10.2846 11.024 11.7955 8.32552 14.4848C5.62708 17.1741 4.11111 20.8217 4.11111 24.625V38.9653H32.8889ZM18.5 34.8681C15.7742 34.8681 13.16 33.7889 11.2325 31.8679C9.30506 29.947 8.22222 27.3416 8.22222 24.625C8.22222 21.9083 9.30506 19.3029 11.2325 17.382C13.16 15.461 15.7742 14.3819 18.5 14.3819C21.2258 14.3819 23.84 15.461 25.7675 17.382C27.6949 19.3029 28.7778 21.9083 28.7778 24.625C28.7778 27.3416 27.6949 29.947 25.7675 31.8679C23.84 33.7889 21.2258 34.8681 18.5 34.8681ZM18.5 30.7708C20.1355 30.7708 21.704 30.1233 22.8605 28.9707C24.017 27.8182 24.6667 26.2549 24.6667 24.625C24.6667 22.995 24.017 21.4318 22.8605 20.2792C21.704 19.1266 20.1355 18.4791 18.5 18.4791C16.8645 18.4791 15.296 19.1266 14.1395 20.2792C12.983 21.4318 12.3333 22.995 12.3333 24.625C12.3333 26.2549 12.983 27.8182 14.1395 28.9707C15.296 30.1233 16.8645 30.7708 18.5 30.7708ZM18.5 26.6736C17.9548 26.6736 17.432 26.4577 17.0465 26.0736C16.661 25.6894 16.4444 25.1683 16.4444 24.625C16.4444 24.0816 16.661 23.5606 17.0465 23.1764C17.432 22.7922 17.9548 22.5763 18.5 22.5763C19.0452 22.5763 19.568 22.7922 19.9535 23.1764C20.339 23.5606 20.5556 24.0816 20.5556 24.625C20.5556 25.1683 20.339 25.6894 19.9535 26.0736C19.568 26.4577 19.0452 26.6736 18.5 26.6736Z" fill="black"/>
</svg>
