<svg width="40" height="44" viewBox="0 0 40 44" fill="none" xmlns="http://www.w3.org/2000/svg">
<g opacity="0.3">
<path d="M9.33335 42.0169V2.56697C9.33335 2.487 9.33335 2.38038 9.33335 2.30042C9.36001 2.06052 9.38668 1.84728 9.46668 1.63403H1.60002C1.09335 1.63403 0.666687 2.06052 0.666687 2.56697V42.0169C0.666687 42.5233 1.09335 42.9498 1.60002 42.9498H9.49335C9.41335 42.7366 9.36001 42.5233 9.36001 42.2834C9.33335 42.2035 9.33335 42.0969 9.33335 42.0169ZM2.26669 6.29872C2.26669 6.08548 2.45335 5.89889 2.66669 5.89889C2.88002 5.89889 3.06668 6.08548 3.06668 6.29872C3.06668 6.51196 2.88002 6.69855 2.66669 6.69855C2.45335 6.69855 2.26669 6.51196 2.26669 6.29872ZM2.66669 2.30042C3.41335 2.30042 4.00002 2.88683 4.00002 3.63318C4.00002 4.37953 3.41335 4.96595 2.66669 4.96595C1.92002 4.96595 1.33335 4.37953 1.33335 3.63318C1.33335 2.88683 1.92002 2.30042 2.66669 2.30042Z" fill="black"/>
<path d="M12.2667 42.2834H28.6133C28.5067 42.6566 28.1333 42.9498 27.7333 42.9498H10.96C10.8267 42.7632 10.72 42.5233 10.6934 42.2834C10.6667 42.2035 10.6667 42.0969 10.6667 42.0169V2.56697C10.6667 2.487 10.6667 2.38038 10.6934 2.30042C10.72 2.06052 10.8267 1.82062 10.96 1.63403H27.7333C28.16 1.63403 28.5067 1.92724 28.6133 2.30042H12.2667C12.1334 2.30042 12 2.40704 12 2.56697V42.0169C12 42.1502 12.1334 42.2834 12.2667 42.2834Z" fill="black"/>
<path d="M10.6933 42.2831C10.72 42.523 10.8267 42.7629 10.96 42.9495C11.2533 43.3493 11.7333 43.6158 12.2667 43.6158H27.7333C28.2666 43.6158 28.7466 43.3493 29.04 42.9495C29.1733 42.7629 29.28 42.523 29.3066 42.2831H10.6933ZM9.49333 42.9495C9.41333 42.7362 9.35999 42.523 9.35999 42.2831H1.62667C1.49333 42.2831 1.36 42.1498 1.36 42.0165V2.56661C1.36 2.40667 1.49333 2.30005 1.62667 2.30005H9.35999C9.38666 2.06015 9.41333 1.84691 9.49333 1.63367C9.57333 1.39377 9.67999 1.18053 9.81333 0.967285H1.6C0.719999 0.967285 0 1.68698 0 2.56661V42.0165C0 42.8961 0.719999 43.6158 1.6 43.6158H9.81333C9.67999 43.4026 9.57333 43.1894 9.49333 42.9495ZM29.04 1.63367C28.7466 1.23384 28.2666 0.967285 27.7333 0.967285H12.2667C11.7333 0.967285 11.2533 1.23384 10.96 1.63367C10.8267 1.82026 10.72 2.06015 10.6933 2.30005H29.3066C29.28 2.06015 29.1733 1.82026 29.04 1.63367Z" fill="black"/>
<path d="M38.4 0.967285H12.2667C11.7334 0.967285 11.2534 1.23384 10.96 1.63367C10.8267 1.82026 10.72 2.06015 10.6934 2.30005C10.6667 2.38002 10.6667 2.48664 10.6667 2.56661V42.0165C10.6667 42.0965 10.6667 42.2031 10.6934 42.2831C10.72 42.523 10.8267 42.7629 10.96 42.9495C11.2534 43.3493 11.7334 43.6158 12.2667 43.6158H38.4C39.28 43.6158 40 42.8961 40 42.0165V2.56661C40 1.68698 39.28 0.967285 38.4 0.967285ZM38.6667 42.0165C38.6667 42.1498 38.5333 42.2831 38.4 42.2831H12.2667C12.1334 42.2831 12 42.1498 12 42.0165V2.56661C12 2.40667 12.1334 2.30005 12.2667 2.30005H38.4C38.5333 2.30005 38.6667 2.40667 38.6667 2.56661V42.0165Z" fill="white"/>
<path d="M38.3999 1.63403H12.2666C11.8399 1.63403 11.4933 1.92724 11.3866 2.30042C11.3599 2.38038 11.3333 2.487 11.3333 2.56697V42.0169C11.3333 42.0969 11.3333 42.2035 11.3866 42.2834C11.4933 42.6566 11.8666 42.9498 12.2666 42.9498H38.3999C38.9066 42.9498 39.3333 42.5233 39.3333 42.0169V2.56697C39.3333 2.06052 38.9066 1.63403 38.3999 1.63403ZM38.6666 42.0169C38.6666 42.1502 38.5333 42.2834 38.3999 42.2834H12.2666C12.1333 42.2834 11.9999 42.1502 11.9999 42.0169V2.56697C11.9999 2.40704 12.1333 2.30042 12.2666 2.30042H38.3999C38.5333 2.30042 38.6666 2.40704 38.6666 2.56697V42.0169Z" fill="white"/>
<path d="M38.4 0.967285H12.2667C11.7334 0.967285 11.2534 1.23384 10.96 1.63367C10.8267 1.82026 10.72 2.06015 10.6934 2.30005C10.6667 2.38002 10.6667 2.48664 10.6667 2.56661V42.0165C10.6667 42.0965 10.6667 42.2031 10.6934 42.2831C10.72 42.523 10.8267 42.7629 10.96 42.9495C11.2534 43.3493 11.7334 43.6158 12.2667 43.6158H38.4C39.28 43.6158 40 42.8961 40 42.0165V2.56661C40 1.68698 39.28 0.967285 38.4 0.967285ZM38.6667 42.0165C38.6667 42.1498 38.5333 42.2831 38.4 42.2831H12.2667C12.1334 42.2831 12 42.1498 12 42.0165V2.56661C12 2.40667 12.1334 2.30005 12.2667 2.30005H38.4C38.5333 2.30005 38.6667 2.40667 38.6667 2.56661V42.0165Z" fill="black"/>
</g>
</svg>
