<svg width="30" height="45" viewBox="0 0 30 45" fill="none" xmlns="http://www.w3.org/2000/svg">
<g opacity="0.3">
<path d="M3.27215 8.87413C3.64871 8.87413 3.95397 8.56887 3.95397 8.19232C3.95397 7.81576 3.64871 7.5105 3.27215 7.5105C2.89559 7.5105 2.59033 7.81576 2.59033 8.19232C2.59033 8.56887 2.89559 8.87413 3.27215 8.87413Z" fill="black"/>
<path d="M3.27215 5.60205C2.89033 5.60205 2.59033 5.90205 2.59033 6.28387C2.59033 6.66569 2.89033 6.96569 3.27215 6.96569C3.65397 6.96569 3.95397 6.66569 3.95397 6.28387C3.95397 5.90205 3.65397 5.60205 3.27215 5.60205ZM3.27215 6.69296C3.05397 6.69296 2.86306 6.50205 2.86306 6.28387C2.86306 6.06569 3.05397 5.87478 3.27215 5.87478C3.49033 5.87478 3.68124 6.06569 3.68124 6.28387C3.68124 6.50205 3.49033 6.69296 3.27215 6.69296Z" fill="black"/>
<path d="M3.27215 5.05724C3.64871 5.05724 3.95397 4.75198 3.95397 4.37542C3.95397 3.99886 3.64871 3.6936 3.27215 3.6936C2.89559 3.6936 2.59033 3.99886 2.59033 4.37542C2.59033 4.75198 2.89559 5.05724 3.27215 5.05724Z" fill="black"/>
<path d="M7.06255 43.2227C6.89892 42.7865 6.8171 42.3503 6.8171 41.8596V3.694C6.8171 3.2033 6.89892 2.76712 7.06255 2.33094C7.14437 2.08559 7.25347 1.8675 7.38983 1.64941H2.75346C1.63528 1.64941 0.708008 2.57629 0.708008 3.694V41.8596C0.708008 42.9773 1.63528 43.9042 2.75346 43.9042H7.38983C7.22619 43.6861 7.14437 43.468 7.06255 43.2227ZM1.90801 8.3284V4.23922C1.90801 3.47591 2.50801 2.87617 3.27164 2.87617C3.65346 2.87617 3.98074 3.03973 4.22619 3.28508C4.47165 3.53043 4.63528 3.85757 4.63528 4.23922V8.3284C4.63528 9.09171 4.03528 9.69145 3.27164 9.69145C2.50801 9.69145 1.90801 9.09171 1.90801 8.3284Z" fill="black"/>
<path d="M10.908 43.2227H20.6171C20.2353 43.6316 19.6898 43.9042 19.0898 43.9042H9.108C8.88982 43.7134 8.69891 43.468 8.56255 43.2227C8.3171 42.8138 8.20801 42.3503 8.20801 41.8596V3.694C8.20801 3.2033 8.34437 2.73986 8.56255 2.33094C8.69891 2.08559 8.88982 1.84024 9.108 1.64941H19.0898C19.6898 1.64941 20.2353 1.92203 20.6171 2.33094C20.808 2.52177 20.9444 2.76712 21.0262 3.01247C21.108 3.23056 21.1353 3.44865 21.1353 3.694H14.9989C14.2353 3.694 13.6353 3.09426 13.6353 2.33094H10.908C10.1444 2.33094 9.54437 2.93069 9.54437 3.694V41.8596C9.54437 42.6229 10.1444 43.2227 10.908 43.2227Z" fill="black"/>
<path d="M21.7364 3.01236C21.6818 2.76701 21.5727 2.54892 21.4636 2.33083C21.3273 2.08548 21.1364 1.84013 20.9182 1.6493C20.4273 1.21312 19.8 0.967773 19.1182 0.967773H10.9364C10.2545 0.967773 9.62727 1.21312 9.13636 1.6493C8.91818 1.84013 8.72727 2.08548 8.59091 2.33083H19.0909C19.5818 2.33083 20.0454 2.60344 20.2636 3.01236C20.3727 3.20319 20.4545 3.44854 20.4545 3.69389H21.8182C21.8182 3.44854 21.7909 3.23045 21.7364 3.01236ZM8.53636 43.2226C8.67272 43.4679 8.86363 43.7133 9.08181 43.9041C9.57272 44.3403 10.2 44.5856 10.8818 44.5856H19.0636C19.7455 44.5856 20.3727 44.3403 20.8636 43.9041C21.0818 43.7133 21.2727 43.4679 21.4091 43.2226H8.53636ZM7.36363 43.9041C7.22727 43.686 7.11818 43.4679 7.03636 43.2226H2.72727C1.96364 43.2226 1.36364 42.6228 1.36364 41.8595V3.69389C1.36364 2.93058 1.96364 2.33083 2.72727 2.33083H7.06363C7.14545 2.08548 7.25454 1.86739 7.39091 1.6493C7.52727 1.40395 7.69091 1.18586 7.88181 0.967773H2.72727C1.22727 0.967773 0 2.19453 0 3.69389V41.8595C0 43.3589 1.22727 44.5856 2.72727 44.5856H7.85454C7.66363 44.3675 7.5 44.1494 7.36363 43.9041Z" fill="black"/>
<path d="M27.2716 0.967773H10.908C10.2262 0.967773 9.59891 1.21312 9.108 1.6493C8.88982 1.84013 8.69891 2.08548 8.56255 2.33083C8.3171 2.73975 8.20801 3.20319 8.20801 3.69389V41.8595C8.20801 42.3502 8.34437 42.8137 8.56255 43.2226C8.69891 43.4679 8.88982 43.7133 9.108 43.9041C9.59891 44.3403 10.2262 44.5856 10.908 44.5856H27.2716C28.7716 44.5856 29.9989 43.3589 29.9989 41.8595V3.69389C29.9989 2.19453 28.7716 0.967773 27.2716 0.967773ZM28.6353 41.8595C28.6353 42.6228 28.0353 43.2226 27.2716 43.2226H10.908C10.1444 43.2226 9.54437 42.6228 9.54437 41.8595V3.69389C9.54437 2.93058 10.1444 2.33083 10.908 2.33083H13.6353C13.6353 3.09414 14.2353 3.69389 14.9989 3.69389H23.1807C23.9444 3.69389 24.5444 3.09414 24.5444 2.33083H27.2716C28.0353 2.33083 28.6353 2.93058 28.6353 3.69389V41.8595Z" fill="white"/>
<path d="M27.2738 1.64941H10.9102C10.3102 1.64941 9.76474 1.92203 9.38293 2.33094C9.05565 2.68534 8.86475 3.17604 8.86475 3.694V41.8596C8.86475 42.3776 9.05565 42.8683 9.38293 43.2227C9.76474 43.6316 10.3102 43.9042 10.9102 43.9042H27.2738C28.392 43.9042 29.3193 42.9773 29.3193 41.8596V3.694C29.3193 2.57629 28.392 1.64941 27.2738 1.64941ZM28.6375 41.8596C28.6375 42.6229 28.0375 43.2227 27.2738 43.2227H10.9102C10.1466 43.2227 9.54656 42.6229 9.54656 41.8596V3.694C9.54656 2.93069 10.1466 2.33094 10.9102 2.33094H13.6375C13.6375 3.09426 14.2375 3.694 15.0011 3.694H23.1829C23.9466 3.694 24.5466 3.09426 24.5466 2.33094H27.2738C28.0375 2.33094 28.6375 2.93069 28.6375 3.694V41.8596Z" fill="white"/>
<path d="M27.2716 0.967773H10.908C10.2262 0.967773 9.59891 1.21312 9.108 1.6493C8.88982 1.84013 8.69891 2.08548 8.56255 2.33083C8.3171 2.73975 8.20801 3.20319 8.20801 3.69389V41.8595C8.20801 42.3502 8.34437 42.8137 8.56255 43.2226C8.69891 43.4679 8.88982 43.7133 9.108 43.9041C9.59891 44.3403 10.2262 44.5856 10.908 44.5856H27.2716C28.7716 44.5856 29.9989 43.3589 29.9989 41.8595V3.69389C29.9989 2.19453 28.7716 0.967773 27.2716 0.967773ZM28.6353 41.8595C28.6353 42.6228 28.0353 43.2226 27.2716 43.2226H10.908C10.1444 43.2226 9.54437 42.6228 9.54437 41.8595V3.69389C9.54437 2.93058 10.1444 2.33083 10.908 2.33083H27.2716C28.0353 2.33083 28.6353 2.93058 28.6353 3.69389V41.8595Z" fill="black"/>
<path d="M15.0007 3.01305C14.6188 3.01305 14.3188 2.71305 14.3188 2.33123C14.3188 1.94941 14.6188 1.64941 15.0007 1.64941H23.1825C23.5643 1.64941 23.8643 1.94941 23.8643 2.33123C23.8643 2.71305 23.5643 3.01305 23.1825 3.01305H15.0007Z" fill="white"/>
<path d="M24.5443 2.33083C24.5443 3.09415 23.9443 3.69389 23.1807 3.69389H14.9989C14.2353 3.69389 13.6353 3.09415 13.6353 2.33083C13.6353 2.08548 13.6898 1.84013 13.8262 1.6493C14.0716 1.24039 14.508 0.967773 14.9989 0.967773H23.1807C23.6716 0.967773 24.1352 1.24039 24.3534 1.6493C24.4898 1.84013 24.5443 2.08548 24.5443 2.33083Z" fill="black"/>
<path d="M3.27215 8.87413C3.64871 8.87413 3.95397 8.56887 3.95397 8.19232C3.95397 7.81576 3.64871 7.5105 3.27215 7.5105C2.89559 7.5105 2.59033 7.81576 2.59033 8.19232C2.59033 8.56887 2.89559 8.87413 3.27215 8.87413Z" fill="white"/>
<path d="M3.27215 5.60205C2.89033 5.60205 2.59033 5.90205 2.59033 6.28387C2.59033 6.66569 2.89033 6.96569 3.27215 6.96569C3.65397 6.96569 3.95397 6.66569 3.95397 6.28387C3.95397 5.90205 3.65397 5.60205 3.27215 5.60205ZM3.27215 6.69296C3.05397 6.69296 2.86306 6.50205 2.86306 6.28387C2.86306 6.06569 3.05397 5.87478 3.27215 5.87478C3.49033 5.87478 3.68124 6.06569 3.68124 6.28387C3.68124 6.50205 3.49033 6.69296 3.27215 6.69296Z" fill="white"/>
<path d="M3.27215 5.05724C3.64871 5.05724 3.95397 4.75198 3.95397 4.37542C3.95397 3.99886 3.64871 3.6936 3.27215 3.6936C2.89559 3.6936 2.59033 3.99886 2.59033 4.37542C2.59033 4.75198 2.89559 5.05724 3.27215 5.05724Z" fill="white"/>
<path d="M3.27215 5.05724C3.64871 5.05724 3.95397 4.75198 3.95397 4.37542C3.95397 3.99886 3.64871 3.6936 3.27215 3.6936C2.89559 3.6936 2.59033 3.99886 2.59033 4.37542C2.59033 4.75198 2.89559 5.05724 3.27215 5.05724Z" fill="black"/>
<path d="M3.27215 5.60205C2.89033 5.60205 2.59033 5.90205 2.59033 6.28387C2.59033 6.66569 2.89033 6.96569 3.27215 6.96569C3.65397 6.96569 3.95397 6.66569 3.95397 6.28387C3.95397 5.90205 3.65397 5.60205 3.27215 5.60205ZM3.27215 6.69296C3.05397 6.69296 2.86306 6.50205 2.86306 6.28387C2.86306 6.06569 3.05397 5.87478 3.27215 5.87478C3.49033 5.87478 3.68124 6.06569 3.68124 6.28387C3.68124 6.50205 3.49033 6.69296 3.27215 6.69296Z" fill="black"/>
<path d="M3.27215 8.87413C3.64871 8.87413 3.95397 8.56887 3.95397 8.19232C3.95397 7.81576 3.64871 7.5105 3.27215 7.5105C2.89559 7.5105 2.59033 7.81576 2.59033 8.19232C2.59033 8.56887 2.89559 8.87413 3.27215 8.87413Z" fill="black"/>
</g>
</svg>
