<svg width="48" height="42" viewBox="0 0 48 42" fill="none" xmlns="http://www.w3.org/2000/svg">
<g opacity="0.3">
<path d="M45.9337 0.966553H1.42063C0.639284 0.966553 0 1.60556 0 2.38658V27.9471C0 28.7281 0.639284 29.3671 1.42063 29.3671H2.36772V28.1837H1.42063C1.30224 28.1837 1.18386 28.0654 1.18386 27.9471V2.38658C1.18386 2.24458 1.30224 2.14991 1.42063 2.14991H45.9337C46.0521 2.14991 46.1705 2.24458 46.1705 2.38658V27.9471C46.1705 28.0654 46.0521 28.1837 45.9337 28.1837H44.9866V29.3671H45.9337C46.7151 29.3671 47.3543 28.7281 47.3543 27.9471V2.38658C47.3543 1.60556 46.7151 0.966553 45.9337 0.966553Z" fill="black"/>
<path d="M45.9337 0.966553H1.42063C0.639284 0.966553 0 1.60556 0 2.38658V27.9471C0 28.7281 0.639284 29.3671 1.42063 29.3671H2.36772V28.1837H1.42063C1.30224 28.1837 1.18386 28.0654 1.18386 27.9471V2.38658C1.18386 2.24458 1.30224 2.14991 1.42063 2.14991H45.9337C46.0521 2.14991 46.1705 2.24458 46.1705 2.38658V27.9471C46.1705 28.0654 46.0521 28.1837 45.9337 28.1837H44.9866V29.3671H45.9337C46.7151 29.3671 47.3543 28.7281 47.3543 27.9471V2.38658C47.3543 1.60556 46.7151 0.966553 45.9337 0.966553Z" fill="black"/>
<path d="M45.9337 29.367H44.9866V28.1837H2.36772V29.367H1.42063C0.639284 29.367 0 28.728 0 27.947V32.6804C0 33.4615 0.639284 34.1005 1.42063 34.1005H45.9337C46.7151 34.1005 47.3543 33.4615 47.3543 32.6804V27.947C47.3543 28.728 46.7151 29.367 45.9337 29.367ZM24.861 31.9704C24.861 32.2308 24.6479 32.4438 24.3875 32.4438H22.9669C22.7064 32.4438 22.4933 32.2308 22.4933 31.9704V30.5504C22.4933 30.2901 22.7064 30.0771 22.9669 30.0771H24.3875C24.6479 30.0771 24.861 30.2901 24.861 30.5504V31.9704Z" fill="black"/>
<path d="M28.9336 36.4673H19.0128C18.0657 36.4673 17.7579 36.7276 17.7106 37.059C17.5448 38.195 16.8819 39.3073 16.3136 40.0647C15.9821 40.538 16.3136 41.177 16.8819 41.177H30.4252C30.9935 41.177 31.3486 40.5144 30.9935 40.0647C30.4252 39.2837 29.7859 38.195 29.5965 37.059C29.5965 36.7276 29.2887 36.4673 28.9336 36.4673Z" fill="black"/>
</g>
</svg>
