<svg width="40" height="40" viewBox="0 0 40 40" fill="none" xmlns="http://www.w3.org/2000/svg">
<path d="M20 40C31.0457 40 40 31.0457 40 20C40 8.95431 31.0457 0 20 0C8.95431 0 0 8.95431 0 20C0 31.0457 8.95431 40 20 40Z" fill="white"/>
<path fill-rule="evenodd" clip-rule="evenodd" d="M19.2745 25.9498H20.5297C20.5297 25.9498 20.9089 25.9081 21.1025 25.699C21.2806 25.5071 21.2749 25.1468 21.2749 25.1468C21.2749 25.1468 21.2504 23.4597 22.0321 23.2112C22.8027 22.9665 23.7923 24.8418 24.8411 25.5628C25.6342 26.1085 26.2369 25.9889 26.2369 25.9889L29.0414 25.9498C29.0414 25.9498 30.5084 25.8592 29.8128 24.7039C29.7558 24.6093 29.4077 23.8492 27.7277 22.2871C25.9692 20.6523 26.2047 20.9167 28.3229 18.0888C29.613 16.3666 30.1287 15.3152 29.9676 14.8648C29.8139 14.4359 28.8652 14.5493 28.8652 14.5493L25.7075 14.569C25.7075 14.569 25.4735 14.537 25.2998 14.641C25.1302 14.7429 25.021 14.9805 25.021 14.9805C25.021 14.9805 24.5213 16.3132 23.8547 17.4466C22.4487 19.8382 21.8865 19.9644 21.6567 19.8159C21.1221 19.4698 21.2556 18.4255 21.2556 17.6836C21.2556 15.366 21.6065 14.3997 20.5722 14.1495C20.229 14.0664 19.9764 14.0116 19.0986 14.0027C17.9719 13.991 17.0183 14.0062 16.4783 14.2712C16.1191 14.4473 15.842 14.84 16.0108 14.8626C16.2195 14.8905 16.6921 14.9902 16.9427 15.332C17.2663 15.7729 17.2549 16.7632 17.2549 16.7632C17.2549 16.7632 17.4408 19.4915 16.8207 19.8305C16.3951 20.0629 15.8112 19.5883 14.5577 17.4186C13.9154 16.3072 13.4304 15.0787 13.4304 15.0787C13.4304 15.0787 13.3369 14.8491 13.1701 14.7263C12.9677 14.5776 12.6849 14.5302 12.6849 14.5302L9.68435 14.5499C9.68435 14.5499 9.23391 14.5624 9.06855 14.7586C8.92145 14.9331 9.05687 15.294 9.05687 15.294C9.05687 15.294 11.406 20.7991 14.0659 23.5733C16.5048 26.1168 19.2745 25.9498 19.2745 25.9498Z" fill="#1F1F1F"/>
</svg>
