<svg width="40" height="40" viewBox="0 0 40 40" fill="none" xmlns="http://www.w3.org/2000/svg">
<circle cx="20" cy="20" r="20" fill="white"/>
<path d="M25.6997 11H14.2999C12.4804 11 11 12.4804 11 14.2999V25.6997C11 27.5192 12.4804 29 14.2999 29H25.6997C27.5192 29 29 27.5196 29 25.6997V14.2999C29 12.4804 27.5196 11 25.6997 11ZM19.9998 25.9255C16.7327 25.9255 14.0745 23.2673 14.0745 19.9998C14.0745 16.7327 16.7327 14.0745 19.9998 14.0745C23.2673 14.0745 25.9255 16.7327 25.9255 19.9998C25.9255 23.2669 23.2669 25.9255 19.9998 25.9255ZM26.116 15.2996C25.3426 15.2996 24.7136 14.6707 24.7136 13.8977C24.7136 13.1247 25.3426 12.4957 26.116 12.4957C26.889 12.4957 27.5179 13.1247 27.5179 13.8977C27.5179 14.6707 26.889 15.2996 26.116 15.2996Z" fill="#1F1F1F"/>
<path d="M20.0002 17C18.3465 17 17 18.3458 17 19.9994C17 21.6538 18.3465 23 20.0002 23C21.6546 23 23 21.6538 23 19.9994C23 18.3462 21.6542 17 20.0002 17Z" fill="#1F1F1F"/>
<path d="M20 0C8.95475 0 0 8.95475 0 20C0 31.0453 8.95475 40 20 40C31.0453 40 40 31.0453 40 20C40 8.95475 31.0453 0 20 0ZM29 24C29 27.3472 27.3472 29 24 29H16C12.6532 29 11 27.3472 11 24V16C11 12.6532 12.6532 11 16 11H24C27.3472 11 29 12.6532 29 16V24Z" fill="white"/>
</svg>
