<svg width="30" height="26" viewBox="0 0 30 26" fill="none" xmlns="http://www.w3.org/2000/svg">
<path d="M24.1912 14.0233V3.00618C24.1912 1.48044 22.9473 0.236572 21.4216 0.236572H2.76961C1.24387 0.236572 0 1.48044 0 3.00618V14.0233C0 15.5491 1.24387 16.7929 2.76961 16.7929H3.56005V20.114C3.56005 20.7268 4.05637 21.2231 4.67525 21.2231C4.99387 21.2231 5.30025 21.0822 5.51471 20.8371L9.01348 16.7868H21.4277C22.9473 16.7929 24.1912 15.5491 24.1912 14.0233ZM8.66422 15.2917C8.44363 15.2917 8.24142 15.3836 8.09436 15.5491L5.05515 19.0601V16.0393C5.05515 15.6226 4.71814 15.2856 4.30147 15.2856H2.76961C2.07108 15.2856 1.50123 14.7157 1.50123 14.0172V3.00618C1.50123 2.30765 2.07108 1.7378 2.76961 1.7378H21.4216C22.1201 1.7378 22.69 2.30765 22.69 3.00618V14.0233C22.69 14.7219 22.1201 15.2917 21.4216 15.2917H8.66422Z" fill="black"/>
<path d="M24.4914 25.3776C24.7059 25.6288 25.0122 25.7636 25.3247 25.7636C25.4534 25.7636 25.5882 25.7391 25.7169 25.6901C26.1581 25.5247 26.4399 25.1203 26.4399 24.6484V21.3274H27.2304C28.7561 21.3274 30 20.0835 30 18.5578V7.5406C30 6.01487 28.7561 4.771 27.2304 4.771C26.8137 4.771 26.4767 5.10801 26.4767 5.51854C26.4767 5.93521 26.8137 6.27222 27.2304 6.27222C27.9289 6.27222 28.4987 6.84207 28.4987 7.5406V18.5578C28.4987 19.2563 27.9289 19.8261 27.2304 19.8261H25.6924C25.2757 19.8261 24.9387 20.1632 24.9387 20.5798V23.6007L21.8995 20.0896C21.7586 19.9242 21.5502 19.8323 21.3296 19.8323H10.0551C9.63846 19.8323 9.30145 20.1693 9.30145 20.5859C9.30145 21.0026 9.63846 21.3396 10.0551 21.3396H20.9865L24.4914 25.3776Z" fill="black"/>
<path d="M12.0956 9.67276C12.5897 9.67276 12.9902 9.27223 12.9902 8.77815C12.9902 8.28407 12.5897 7.88354 12.0956 7.88354C11.6015 7.88354 11.201 8.28407 11.201 8.77815C11.201 9.27223 11.6015 9.67276 12.0956 9.67276Z" fill="black"/>
<path d="M15.092 9.67276C15.5861 9.67276 15.9866 9.27223 15.9866 8.77815C15.9866 8.28407 15.5861 7.88354 15.092 7.88354C14.5979 7.88354 14.1974 8.28407 14.1974 8.77815C14.1974 9.27223 14.5979 9.67276 15.092 9.67276Z" fill="black"/>
<path d="M9.0992 9.67276C9.59328 9.67276 9.99381 9.27223 9.99381 8.77815C9.99381 8.28407 9.59328 7.88354 9.0992 7.88354C8.60512 7.88354 8.20459 8.28407 8.20459 8.77815C8.20459 9.27223 8.60512 9.67276 9.0992 9.67276Z" fill="black"/>
</svg>
