<svg width="26" height="44" viewBox="0 0 26 44" fill="none" xmlns="http://www.w3.org/2000/svg">
<g opacity="0.4">
<path d="M20.5052 11.792C18.6557 12.5157 15.5464 13.159 12.598 13.159V11.0415H17.9588C18.8969 11.0415 19.7815 11.3095 20.5052 11.792Z" fill="black"/>
<path d="M22.0331 10.9342C21.9795 10.9878 21.9258 11.0682 21.8454 11.1218C20.8001 10.2376 19.4598 9.72857 17.9856 9.72857H12.6248V0.994141H15.3052C17.0207 0.994141 18.4681 1.47641 18.6825 3.16435C18.6825 3.16435 18.9774 6.62062 20.7197 9.03196C21.0949 9.54103 21.5238 9.9965 22.0331 10.3716C22.1939 10.5324 22.1939 10.7199 22.0331 10.9342Z" fill="black"/>
<path d="M12.5979 0.99408V9.70173H7.23707C5.76285 9.70173 4.42263 10.2376 3.37727 11.095C3.29686 11.0414 3.24326 10.961 3.18966 10.9074C3.02883 10.6931 3.02882 10.5055 3.24325 10.3448C3.75253 9.96966 4.1814 9.51418 4.55666 9.00512C6.29893 6.59377 6.59377 3.1375 6.59377 3.1375C6.8082 1.44956 8.25563 0.967285 9.9711 0.967285H12.5979V0.99408Z" fill="black"/>
<path d="M12.598 11.0413V13.1588C9.6495 13.1588 6.54022 12.4887 4.69073 11.7918C5.41445 11.3093 6.29898 11.0413 7.23713 11.0413H12.598Z" fill="black"/>
<path d="M20.5061 33.0655C19.7824 33.548 18.8978 33.816 17.9597 33.816H12.5989V31.6985C15.5473 31.6985 18.6566 32.3418 20.5061 33.0655Z" fill="black"/>
<path d="M21.9794 34.4859C21.4702 34.861 21.0413 35.3164 20.666 35.8255C18.9237 38.2368 18.6289 41.6931 18.6289 41.6931C18.4145 43.3811 16.9671 43.8633 15.2516 43.8633H12.5712V35.1557H17.932C19.4062 35.1557 20.7464 34.6198 21.7918 33.7625C21.8722 33.816 21.9258 33.8964 21.9794 33.95C22.1939 34.1376 22.1939 34.3251 21.9794 34.4859Z" fill="black"/>
<path d="M12.5979 31.6985V33.816H7.23707C6.29892 33.816 5.41439 33.548 4.69067 33.0655C6.54016 32.3418 9.64944 31.6985 12.5979 31.6985Z" fill="black"/>
<path d="M12.598 35.1556V43.8633H9.91755C8.20209 43.8633 6.75468 43.381 6.54024 41.6931C6.54024 41.6931 6.24539 38.2368 4.50312 35.8254C4.12787 35.3164 3.69901 34.8609 3.18973 34.4858C2.9753 34.325 2.9753 34.1375 3.13612 33.9231C3.18973 33.8696 3.24334 33.7892 3.32375 33.7356C4.36911 34.6198 5.70931 35.1288 7.18353 35.1288H12.598V35.1556Z" fill="black"/>
<path d="M20.5051 11.792C19.7814 11.3097 18.8969 11.0418 17.9587 11.0418H7.23708C6.29893 11.0418 5.4144 11.3097 4.69069 11.792C3.40409 12.6226 2.54636 14.0962 2.54636 15.7306V29.1269C2.54636 30.7881 3.40409 32.2349 4.69069 33.0655C5.4144 33.5477 6.29893 33.8157 7.23708 33.8157H17.9587C18.8969 33.8157 19.7814 33.5477 20.5051 33.0655C21.7917 32.2349 22.6494 30.7881 22.6494 29.1269V15.7306C22.6494 14.0694 21.7917 12.6226 20.5051 11.792ZM10.4804 26.1261C10.4 25.8582 10.4268 25.5635 10.6144 25.3224C10.7752 25.108 11.0433 24.9741 11.3113 24.9741C11.3917 24.9741 11.4989 24.9741 11.5793 25.0276C11.7938 25.0812 12.035 25.108 12.2762 25.108C12.8123 25.108 13.3484 24.9473 13.7773 24.6258C14.2062 24.3042 14.5546 23.8488 14.7154 23.3397C14.7958 23.0718 14.8495 22.8306 14.8495 22.5359C14.8495 22.268 14.7958 22.0001 14.7154 21.7589C14.5546 21.2499 14.233 20.7944 13.7773 20.4729C13.5897 20.3389 13.3752 20.2049 13.1608 20.1514C12.7855 20.0174 12.5711 19.6959 12.5711 19.3208C12.5711 19.0261 12.7051 18.7849 12.9464 18.6242C13.1608 18.4634 13.4288 18.4098 13.6701 18.4902C13.6969 18.4902 13.7237 18.517 13.7505 18.517C13.8577 18.5438 13.9381 18.5974 14.0185 18.6242C14.0989 18.6778 14.2061 18.7045 14.2866 18.7581C14.367 18.8117 14.4474 18.8385 14.5278 18.8921C14.5546 18.8921 14.5546 18.9189 14.5814 18.9189C14.6618 18.9725 14.7422 19.0261 14.8226 19.0796C15.5464 19.6155 16.1092 20.3657 16.3773 21.2231C16.5113 21.6518 16.5917 22.0804 16.5917 22.5359C16.5917 22.9914 16.5113 23.4469 16.3773 23.8756C16.1092 24.7329 15.5464 25.4831 14.8226 26.019C14.0989 26.5548 13.2144 26.8496 12.3031 26.8496C12.1958 26.8496 12.0618 26.8496 11.9546 26.8228C11.901 26.8228 11.8474 26.8228 11.7938 26.796C11.7402 26.796 11.6598 26.7692 11.6061 26.7692C11.5525 26.7692 11.4989 26.7424 11.4721 26.7424C11.4185 26.7424 11.3649 26.7156 11.3113 26.7156C11.2577 26.7156 11.2041 26.6888 11.1505 26.662H11.1237C11.0969 26.662 11.0969 26.662 11.0701 26.6352C11.0701 26.6352 11.0701 26.6352 11.0433 26.6352C10.7484 26.5816 10.5608 26.3941 10.4804 26.1261ZM10.8556 27.1711H10.8824C10.9092 27.1711 10.9361 27.1711 10.9629 27.1979C11.0165 27.2246 11.0969 27.2246 11.1505 27.2514C11.2041 27.2782 11.2845 27.2782 11.3381 27.305C11.3917 27.305 11.4453 27.3318 11.4989 27.3318C11.767 27.3854 12.035 27.3854 12.3031 27.3854C13.3484 27.3854 14.3134 27.0639 15.1443 26.4477C15.9484 25.8582 16.5917 25.0008 16.8866 24.0363C17.0474 23.554 17.1278 23.045 17.1278 22.5359C17.1278 22.0269 17.0474 21.5178 16.8866 21.0355C16.5649 20.071 15.9484 19.2136 15.1443 18.6242C15.0639 18.5706 15.0103 18.517 14.9299 18.4902C14.6618 18.3027 14.367 18.1687 14.0453 18.0347C14.0185 18.0079 13.9649 18.0079 13.9381 17.9812H13.9113C13.6969 17.9008 13.4824 17.8472 13.2412 17.7936C12.8391 17.7132 12.5711 17.3649 12.5711 16.9362C12.5711 16.6683 12.6783 16.4272 12.8927 16.2664C13.0804 16.1324 13.2948 16.0521 13.5092 16.0789C13.5629 16.0789 13.5897 16.1057 13.6433 16.1057C13.7237 16.1057 13.8041 16.1324 13.8845 16.1592C13.9381 16.1592 13.9917 16.186 14.0453 16.186C14.0989 16.2128 14.1793 16.2128 14.2329 16.2396C14.2866 16.2664 14.367 16.2932 14.4206 16.2932C14.5278 16.32 14.6618 16.3736 14.769 16.4272C15.0371 16.5343 15.2783 16.6415 15.5196 16.7755C15.5732 16.8023 15.6268 16.8291 15.6804 16.8559C15.7608 16.9094 15.868 16.963 15.9484 17.0166C16.0288 17.0702 16.1092 17.1238 16.1897 17.1774C17.3154 17.9812 18.1463 19.16 18.5752 20.4729C18.7896 21.1159 18.8969 21.8125 18.8969 22.5091C18.8969 23.2057 18.7896 23.9024 18.5752 24.5454C18.5484 24.599 18.5216 24.6793 18.5216 24.7329C18.4948 24.7865 18.468 24.8669 18.4412 24.9205C18.4144 24.9741 18.3876 25.0544 18.3608 25.108C18.2804 25.3224 18.1732 25.5367 18.0659 25.7243C18.0391 25.7778 17.9855 25.8582 17.9587 25.9118C17.9051 25.9922 17.8515 26.0994 17.7711 26.1797C17.7175 26.2333 17.6907 26.3137 17.6371 26.3673C17.5835 26.4477 17.5031 26.5548 17.4226 26.6352C17.369 26.7156 17.2886 26.796 17.235 26.8496C17.2082 26.8763 17.1814 26.9299 17.1546 26.9567C17.0742 27.0371 16.9938 27.1175 16.9134 27.1979C16.6989 27.4122 16.4309 27.6265 16.1897 27.8141C15.0639 28.6447 13.7237 29.0733 12.3299 29.0733C10.936 29.0733 9.59583 28.6447 8.47006 27.8141C7.71955 27.2514 7.04944 26.528 6.59377 25.7243C6.45975 25.5099 6.45976 25.242 6.54018 25.0008C6.64739 24.7597 6.83502 24.5722 7.10306 24.4918C7.18347 24.465 7.29069 24.4382 7.3711 24.4382C7.66594 24.4382 7.96079 24.599 8.12161 24.8669C8.47006 25.4831 8.92574 26.019 9.48863 26.4209C9.89069 26.796 10.3732 27.0371 10.8556 27.1711ZM18.468 28.9126C18.2804 29.1001 18.0391 29.1805 17.7711 29.1537C17.5031 29.1269 17.2886 28.993 17.1278 28.8054C16.8598 28.4571 16.9134 27.9748 17.235 27.6533C17.2618 27.6265 17.2618 27.6265 17.2886 27.5997C17.3422 27.5462 17.4226 27.4658 17.4763 27.3854C17.5835 27.2782 17.6639 27.1711 17.7443 27.0639C17.8247 26.9567 17.9319 26.8495 18.0123 26.7424C18.0659 26.662 18.1195 26.5816 18.1732 26.5012C18.2268 26.4477 18.2536 26.3673 18.3072 26.2869C18.334 26.2333 18.3876 26.1797 18.4144 26.0994C18.4412 26.0458 18.468 26.019 18.4948 25.9654C18.5216 25.9118 18.5752 25.8314 18.602 25.7778C18.6288 25.751 18.6288 25.6975 18.6556 25.6707C18.7092 25.5903 18.736 25.4831 18.7896 25.4027C18.8969 25.1884 18.9773 24.9741 19.0309 24.7597C19.2721 24.0631 19.3793 23.3129 19.3793 22.5627C19.3793 21.8125 19.2721 21.0623 19.0309 20.3657C18.5752 18.9457 17.6639 17.6864 16.4577 16.8023C16.3773 16.7487 16.2969 16.6683 16.1897 16.6147C16.1629 16.5879 16.136 16.5611 16.0824 16.5611C15.8948 16.454 15.7072 16.3468 15.5196 16.2396C15.4659 16.2128 15.4123 16.186 15.3587 16.1592C15.1979 16.0789 15.0639 15.9985 14.8763 15.9449C14.8226 15.9181 14.769 15.8913 14.7154 15.8913C14.635 15.8645 14.5546 15.8377 14.4742 15.8109C14.4206 15.8109 14.3938 15.7841 14.3402 15.7573C14.233 15.7305 14.0989 15.677 13.9649 15.6502C13.8845 15.6234 13.8041 15.5966 13.7237 15.5966H13.6969C13.6701 15.5966 13.6701 15.5966 13.6433 15.5966C13.6165 15.5966 13.5897 15.5966 13.5897 15.5966C13.4824 15.5698 13.3752 15.5698 13.268 15.543C12.8391 15.4894 12.5175 15.1143 12.5175 14.6856C12.5175 14.4445 12.6247 14.2034 12.8123 14.0426C12.9732 13.9087 13.1876 13.8283 13.402 13.8283C13.4556 13.8283 13.4824 13.8283 13.536 13.8283C14.9567 14.0426 16.2969 14.5785 17.4763 15.4358C18.9773 16.5343 20.1299 18.1151 20.6927 19.8566C20.9876 20.7408 21.1216 21.6517 21.1216 22.5895C21.1216 23.5272 20.9876 24.4382 20.6927 25.3224C20.2907 26.662 19.5134 27.8945 18.468 28.9126ZM20.5051 11.792C19.7814 11.3097 18.8969 11.0418 17.9587 11.0418H7.23708C6.29893 11.0418 5.4144 11.3097 4.69069 11.792C3.40409 12.6226 2.54636 14.0962 2.54636 15.7306V29.1269C2.54636 30.7881 3.40409 32.2349 4.69069 33.0655C5.4144 33.5477 6.29893 33.8157 7.23708 33.8157H17.9587C18.8969 33.8157 19.7814 33.5477 20.5051 33.0655C21.7917 32.2349 22.6494 30.7881 22.6494 29.1269V15.7306C22.6494 14.0694 21.7917 12.6226 20.5051 11.792ZM10.4804 26.1261C10.4 25.8582 10.4268 25.5635 10.6144 25.3224C10.7752 25.108 11.0433 24.9741 11.3113 24.9741C11.3917 24.9741 11.4989 24.9741 11.5793 25.0276C11.7938 25.0812 12.035 25.108 12.2762 25.108C12.8123 25.108 13.3484 24.9473 13.7773 24.6258C14.2062 24.3042 14.5546 23.8488 14.7154 23.3397C14.7958 23.0718 14.8495 22.8306 14.8495 22.5359C14.8495 22.268 14.7958 22.0001 14.7154 21.7589C14.5546 21.2499 14.233 20.7944 13.7773 20.4729C13.5897 20.3389 13.3752 20.2049 13.1608 20.1514C12.7855 20.0174 12.5711 19.6959 12.5711 19.3208C12.5711 19.0261 12.7051 18.7849 12.9464 18.6242C13.1608 18.4634 13.4288 18.4098 13.6701 18.4902C13.6969 18.4902 13.7237 18.517 13.7505 18.517C13.8577 18.5438 13.9381 18.5974 14.0185 18.6242C14.0989 18.6778 14.2061 18.7045 14.2866 18.7581C14.367 18.8117 14.4474 18.8385 14.5278 18.8921C14.5546 18.8921 14.5546 18.9189 14.5814 18.9189C14.6618 18.9725 14.7422 19.0261 14.8226 19.0796C15.5464 19.6155 16.1092 20.3657 16.3773 21.2231C16.5113 21.6518 16.5917 22.0804 16.5917 22.5359C16.5917 22.9914 16.5113 23.4469 16.3773 23.8756C16.1092 24.7329 15.5464 25.4831 14.8226 26.019C14.0989 26.5548 13.2144 26.8496 12.3031 26.8496C12.1958 26.8496 12.0618 26.8496 11.9546 26.8228C11.901 26.8228 11.8474 26.8228 11.7938 26.796C11.7402 26.796 11.6598 26.7692 11.6061 26.7692C11.5525 26.7692 11.4989 26.7424 11.4721 26.7424C11.4185 26.7424 11.3649 26.7156 11.3113 26.7156C11.2577 26.7156 11.2041 26.6888 11.1505 26.662H11.1237C11.0969 26.662 11.0969 26.662 11.0701 26.6352C11.0701 26.6352 11.0701 26.6352 11.0433 26.6352C10.7484 26.5816 10.5608 26.3941 10.4804 26.1261ZM10.8556 27.1711H10.8824C10.9092 27.1711 10.9361 27.1711 10.9629 27.1979C11.0165 27.2246 11.0969 27.2246 11.1505 27.2514C11.2041 27.2782 11.2845 27.2782 11.3381 27.305C11.3917 27.305 11.4453 27.3318 11.4989 27.3318C11.767 27.3854 12.035 27.3854 12.3031 27.3854C13.3484 27.3854 14.3134 27.0639 15.1443 26.4477C15.9484 25.8582 16.5917 25.0008 16.8866 24.0363C17.0474 23.554 17.1278 23.045 17.1278 22.5359C17.1278 22.0269 17.0474 21.5178 16.8866 21.0355C16.5649 20.071 15.9484 19.2136 15.1443 18.6242C15.0639 18.5706 15.0103 18.517 14.9299 18.4902C14.6618 18.3027 14.367 18.1687 14.0453 18.0347C14.0185 18.0079 13.9649 18.0079 13.9381 17.9812H13.9113C13.6969 17.9008 13.4824 17.8472 13.2412 17.7936C12.8391 17.7132 12.5711 17.3649 12.5711 16.9362C12.5711 16.6683 12.6783 16.4272 12.8927 16.2664C13.0804 16.1324 13.2948 16.0521 13.5092 16.0789C13.5629 16.0789 13.5897 16.1057 13.6433 16.1057C13.7237 16.1057 13.8041 16.1324 13.8845 16.1592C13.9381 16.1592 13.9917 16.186 14.0453 16.186C14.0989 16.2128 14.1793 16.2128 14.2329 16.2396C14.2866 16.2664 14.367 16.2932 14.4206 16.2932C14.5278 16.32 14.6618 16.3736 14.769 16.4272C15.0371 16.5343 15.2783 16.6415 15.5196 16.7755C15.5732 16.8023 15.6268 16.8291 15.6804 16.8559C15.7608 16.9094 15.868 16.963 15.9484 17.0166C16.0288 17.0702 16.1092 17.1238 16.1897 17.1774C17.3154 17.9812 18.1463 19.16 18.5752 20.4729C18.7896 21.1159 18.8969 21.8125 18.8969 22.5091C18.8969 23.2057 18.7896 23.9024 18.5752 24.5454C18.5484 24.599 18.5216 24.6793 18.5216 24.7329C18.4948 24.7865 18.468 24.8669 18.4412 24.9205C18.4144 24.9741 18.3876 25.0544 18.3608 25.108C18.2804 25.3224 18.1732 25.5367 18.0659 25.7243C18.0391 25.7778 17.9855 25.8582 17.9587 25.9118C17.9051 25.9922 17.8515 26.0994 17.7711 26.1797C17.7175 26.2333 17.6907 26.3137 17.6371 26.3673C17.5835 26.4477 17.5031 26.5548 17.4226 26.6352C17.369 26.7156 17.2886 26.796 17.235 26.8496C17.2082 26.8763 17.1814 26.9299 17.1546 26.9567C17.0742 27.0371 16.9938 27.1175 16.9134 27.1979C16.6989 27.4122 16.4309 27.6265 16.1897 27.8141C15.0639 28.6447 13.7237 29.0733 12.3299 29.0733C10.936 29.0733 9.59583 28.6447 8.47006 27.8141C7.71955 27.2514 7.04944 26.528 6.59377 25.7243C6.45975 25.5099 6.45976 25.242 6.54018 25.0008C6.64739 24.7597 6.83502 24.5722 7.10306 24.4918C7.18347 24.465 7.29069 24.4382 7.3711 24.4382C7.66594 24.4382 7.96079 24.599 8.12161 24.8669C8.47006 25.4831 8.92574 26.019 9.48863 26.4209C9.89069 26.796 10.3732 27.0371 10.8556 27.1711ZM18.468 28.9126C18.2804 29.1001 18.0391 29.1805 17.7711 29.1537C17.5031 29.1269 17.2886 28.993 17.1278 28.8054C16.8598 28.4571 16.9134 27.9748 17.235 27.6533C17.2618 27.6265 17.2618 27.6265 17.2886 27.5997C17.3422 27.5462 17.4226 27.4658 17.4763 27.3854C17.5835 27.2782 17.6639 27.1711 17.7443 27.0639C17.8247 26.9567 17.9319 26.8495 18.0123 26.7424C18.0659 26.662 18.1195 26.5816 18.1732 26.5012C18.2268 26.4477 18.2536 26.3673 18.3072 26.2869C18.334 26.2333 18.3876 26.1797 18.4144 26.0994C18.4412 26.0458 18.468 26.019 18.4948 25.9654C18.5216 25.9118 18.5752 25.8314 18.602 25.7778C18.6288 25.751 18.6288 25.6975 18.6556 25.6707C18.7092 25.5903 18.736 25.4831 18.7896 25.4027C18.8969 25.1884 18.9773 24.9741 19.0309 24.7597C19.2721 24.0631 19.3793 23.3129 19.3793 22.5627C19.3793 21.8125 19.2721 21.0623 19.0309 20.3657C18.5752 18.9457 17.6639 17.6864 16.4577 16.8023C16.3773 16.7487 16.2969 16.6683 16.1897 16.6147C16.1629 16.5879 16.136 16.5611 16.0824 16.5611C15.8948 16.454 15.7072 16.3468 15.5196 16.2396C15.4659 16.2128 15.4123 16.186 15.3587 16.1592C15.1979 16.0789 15.0639 15.9985 14.8763 15.9449C14.8226 15.9181 14.769 15.8913 14.7154 15.8913C14.635 15.8645 14.5546 15.8377 14.4742 15.8109C14.4206 15.8109 14.3938 15.7841 14.3402 15.7573C14.233 15.7305 14.0989 15.677 13.9649 15.6502C13.8845 15.6234 13.8041 15.5966 13.7237 15.5966H13.6969C13.6701 15.5966 13.6701 15.5966 13.6433 15.5966C13.6165 15.5966 13.5897 15.5966 13.5897 15.5966C13.4824 15.5698 13.3752 15.5698 13.268 15.543C12.8391 15.4894 12.5175 15.1143 12.5175 14.6856C12.5175 14.4445 12.6247 14.2034 12.8123 14.0426C12.9732 13.9087 13.1876 13.8283 13.402 13.8283C13.4556 13.8283 13.4824 13.8283 13.536 13.8283C14.9567 14.0426 16.2969 14.5785 17.4763 15.4358C18.9773 16.5343 20.1299 18.1151 20.6927 19.8566C20.9876 20.7408 21.1216 21.6517 21.1216 22.5895C21.1216 23.5272 20.9876 24.4382 20.6927 25.3224C20.2907 26.662 19.5134 27.8945 18.468 28.9126ZM20.5051 11.792C19.7814 11.3097 18.8969 11.0418 17.9587 11.0418H7.23708C6.29893 11.0418 5.4144 11.3097 4.69069 11.792C3.40409 12.6226 2.54636 14.0962 2.54636 15.7306V29.1269C2.54636 30.7881 3.40409 32.2349 4.69069 33.0655C5.4144 33.5477 6.29893 33.8157 7.23708 33.8157H17.9587C18.8969 33.8157 19.7814 33.5477 20.5051 33.0655C21.7917 32.2349 22.6494 30.7881 22.6494 29.1269V15.7306C22.6494 14.0694 21.7917 12.6226 20.5051 11.792ZM10.4804 26.1261C10.4 25.8582 10.4268 25.5635 10.6144 25.3224C10.7752 25.108 11.0433 24.9741 11.3113 24.9741C11.3917 24.9741 11.4989 24.9741 11.5793 25.0276C11.7938 25.0812 12.035 25.108 12.2762 25.108C12.8123 25.108 13.3484 24.9473 13.7773 24.6258C14.2062 24.3042 14.5546 23.8488 14.7154 23.3397C14.7958 23.0718 14.8495 22.8306 14.8495 22.5359C14.8495 22.268 14.7958 22.0001 14.7154 21.7589C14.5546 21.2499 14.233 20.7944 13.7773 20.4729C13.5897 20.3389 13.3752 20.2049 13.1608 20.1514C12.7855 20.0174 12.5711 19.6959 12.5711 19.3208C12.5711 19.0261 12.7051 18.7849 12.9464 18.6242C13.1608 18.4634 13.4288 18.4098 13.6701 18.4902C13.6969 18.4902 13.7237 18.517 13.7505 18.517C13.8577 18.5438 13.9381 18.5974 14.0185 18.6242C14.0989 18.6778 14.2061 18.7045 14.2866 18.7581C14.367 18.8117 14.4474 18.8385 14.5278 18.8921C14.5546 18.8921 14.5546 18.9189 14.5814 18.9189C14.6618 18.9725 14.7422 19.0261 14.8226 19.0796C15.5464 19.6155 16.1092 20.3657 16.3773 21.2231C16.5113 21.6518 16.5917 22.0804 16.5917 22.5359C16.5917 22.9914 16.5113 23.4469 16.3773 23.8756C16.1092 24.7329 15.5464 25.4831 14.8226 26.019C14.0989 26.5548 13.2144 26.8496 12.3031 26.8496C12.1958 26.8496 12.0618 26.8496 11.9546 26.8228C11.901 26.8228 11.8474 26.8228 11.7938 26.796C11.7402 26.796 11.6598 26.7692 11.6061 26.7692C11.5525 26.7692 11.4989 26.7424 11.4721 26.7424C11.4185 26.7424 11.3649 26.7156 11.3113 26.7156C11.2577 26.7156 11.2041 26.6888 11.1505 26.662H11.1237C11.0969 26.662 11.0969 26.662 11.0701 26.6352C11.0701 26.6352 11.0701 26.6352 11.0433 26.6352C10.7484 26.5816 10.5608 26.3941 10.4804 26.1261ZM10.8556 27.1711H10.8824C10.9092 27.1711 10.9361 27.1711 10.9629 27.1979C11.0165 27.2246 11.0969 27.2246 11.1505 27.2514C11.2041 27.2782 11.2845 27.2782 11.3381 27.305C11.3917 27.305 11.4453 27.3318 11.4989 27.3318C11.767 27.3854 12.035 27.3854 12.3031 27.3854C13.3484 27.3854 14.3134 27.0639 15.1443 26.4477C15.9484 25.8582 16.5917 25.0008 16.8866 24.0363C17.0474 23.554 17.1278 23.045 17.1278 22.5359C17.1278 22.0269 17.0474 21.5178 16.8866 21.0355C16.5649 20.071 15.9484 19.2136 15.1443 18.6242C15.0639 18.5706 15.0103 18.517 14.9299 18.4902C14.6618 18.3027 14.367 18.1687 14.0453 18.0347C14.0185 18.0079 13.9649 18.0079 13.9381 17.9812H13.9113C13.6969 17.9008 13.4824 17.8472 13.2412 17.7936C12.8391 17.7132 12.5711 17.3649 12.5711 16.9362C12.5711 16.6683 12.6783 16.4272 12.8927 16.2664C13.0804 16.1324 13.2948 16.0521 13.5092 16.0789C13.5629 16.0789 13.5897 16.1057 13.6433 16.1057C13.7237 16.1057 13.8041 16.1324 13.8845 16.1592C13.9381 16.1592 13.9917 16.186 14.0453 16.186C14.0989 16.2128 14.1793 16.2128 14.2329 16.2396C14.2866 16.2664 14.367 16.2932 14.4206 16.2932C14.5278 16.32 14.6618 16.3736 14.769 16.4272C15.0371 16.5343 15.2783 16.6415 15.5196 16.7755C15.5732 16.8023 15.6268 16.8291 15.6804 16.8559C15.7608 16.9094 15.868 16.963 15.9484 17.0166C16.0288 17.0702 16.1092 17.1238 16.1897 17.1774C17.3154 17.9812 18.1463 19.16 18.5752 20.4729C18.7896 21.1159 18.8969 21.8125 18.8969 22.5091C18.8969 23.2057 18.7896 23.9024 18.5752 24.5454C18.5484 24.599 18.5216 24.6793 18.5216 24.7329C18.4948 24.7865 18.468 24.8669 18.4412 24.9205C18.4144 24.9741 18.3876 25.0544 18.3608 25.108C18.2804 25.3224 18.1732 25.5367 18.0659 25.7243C18.0391 25.7778 17.9855 25.8582 17.9587 25.9118C17.9051 25.9922 17.8515 26.0994 17.7711 26.1797C17.7175 26.2333 17.6907 26.3137 17.6371 26.3673C17.5835 26.4477 17.5031 26.5548 17.4226 26.6352C17.369 26.7156 17.2886 26.796 17.235 26.8496C17.2082 26.8763 17.1814 26.9299 17.1546 26.9567C17.0742 27.0371 16.9938 27.1175 16.9134 27.1979C16.6989 27.4122 16.4309 27.6265 16.1897 27.8141C15.0639 28.6447 13.7237 29.0733 12.3299 29.0733C10.936 29.0733 9.59583 28.6447 8.47006 27.8141C7.71955 27.2514 7.04944 26.528 6.59377 25.7243C6.45975 25.5099 6.45976 25.242 6.54018 25.0008C6.64739 24.7597 6.83502 24.5722 7.10306 24.4918C7.18347 24.465 7.29069 24.4382 7.3711 24.4382C7.66594 24.4382 7.96079 24.599 8.12161 24.8669C8.47006 25.4831 8.92574 26.019 9.48863 26.4209C9.89069 26.796 10.3732 27.0371 10.8556 27.1711ZM18.468 28.9126C18.2804 29.1001 18.0391 29.1805 17.7711 29.1537C17.5031 29.1269 17.2886 28.993 17.1278 28.8054C16.8598 28.4571 16.9134 27.9748 17.235 27.6533C17.2618 27.6265 17.2618 27.6265 17.2886 27.5997C17.3422 27.5462 17.4226 27.4658 17.4763 27.3854C17.5835 27.2782 17.6639 27.1711 17.7443 27.0639C17.8247 26.9567 17.9319 26.8495 18.0123 26.7424C18.0659 26.662 18.1195 26.5816 18.1732 26.5012C18.2268 26.4477 18.2536 26.3673 18.3072 26.2869C18.334 26.2333 18.3876 26.1797 18.4144 26.0994C18.4412 26.0458 18.468 26.019 18.4948 25.9654C18.5216 25.9118 18.5752 25.8314 18.602 25.7778C18.6288 25.751 18.6288 25.6975 18.6556 25.6707C18.7092 25.5903 18.736 25.4831 18.7896 25.4027C18.8969 25.1884 18.9773 24.9741 19.0309 24.7597C19.2721 24.0631 19.3793 23.3129 19.3793 22.5627C19.3793 21.8125 19.2721 21.0623 19.0309 20.3657C18.5752 18.9457 17.6639 17.6864 16.4577 16.8023C16.3773 16.7487 16.2969 16.6683 16.1897 16.6147C16.1629 16.5879 16.136 16.5611 16.0824 16.5611C15.8948 16.454 15.7072 16.3468 15.5196 16.2396C15.4659 16.2128 15.4123 16.186 15.3587 16.1592C15.1979 16.0789 15.0639 15.9985 14.8763 15.9449C14.8226 15.9181 14.769 15.8913 14.7154 15.8913C14.635 15.8645 14.5546 15.8377 14.4742 15.8109C14.4206 15.8109 14.3938 15.7841 14.3402 15.7573C14.233 15.7305 14.0989 15.677 13.9649 15.6502C13.8845 15.6234 13.8041 15.5966 13.7237 15.5966H13.6969C13.6701 15.5966 13.6701 15.5966 13.6433 15.5966C13.6165 15.5966 13.5897 15.5966 13.5897 15.5966C13.4824 15.5698 13.3752 15.5698 13.268 15.543C12.8391 15.4894 12.5175 15.1143 12.5175 14.6856C12.5175 14.4445 12.6247 14.2034 12.8123 14.0426C12.9732 13.9087 13.1876 13.8283 13.402 13.8283C13.4556 13.8283 13.4824 13.8283 13.536 13.8283C14.9567 14.0426 16.2969 14.5785 17.4763 15.4358C18.9773 16.5343 20.1299 18.1151 20.6927 19.8566C20.9876 20.7408 21.1216 21.6517 21.1216 22.5895C21.1216 23.5272 20.9876 24.4382 20.6927 25.3224C20.2907 26.662 19.5134 27.8945 18.468 28.9126ZM20.5051 11.792C19.7814 11.3097 18.8969 11.0418 17.9587 11.0418H7.23708C6.29893 11.0418 5.4144 11.3097 4.69069 11.792C3.40409 12.6226 2.54636 14.0962 2.54636 15.7306V29.1269C2.54636 30.7881 3.40409 32.2349 4.69069 33.0655C5.4144 33.5477 6.29893 33.8157 7.23708 33.8157H17.9587C18.8969 33.8157 19.7814 33.5477 20.5051 33.0655C21.7917 32.2349 22.6494 30.7881 22.6494 29.1269V15.7306C22.6494 14.0694 21.7917 12.6226 20.5051 11.792ZM10.4804 26.1261C10.4 25.8582 10.4268 25.5635 10.6144 25.3224C10.7752 25.108 11.0433 24.9741 11.3113 24.9741C11.3917 24.9741 11.4989 24.9741 11.5793 25.0276C11.7938 25.0812 12.035 25.108 12.2762 25.108C12.8123 25.108 13.3484 24.9473 13.7773 24.6258C14.2062 24.3042 14.5546 23.8488 14.7154 23.3397C14.7958 23.0718 14.8495 22.8306 14.8495 22.5359C14.8495 22.268 14.7958 22.0001 14.7154 21.7589C14.5546 21.2499 14.233 20.7944 13.7773 20.4729C13.5897 20.3389 13.3752 20.2049 13.1608 20.1514C12.7855 20.0174 12.5711 19.6959 12.5711 19.3208C12.5711 19.0261 12.7051 18.7849 12.9464 18.6242C13.1608 18.4634 13.4288 18.4098 13.6701 18.4902C13.6969 18.4902 13.7237 18.517 13.7505 18.517C13.8577 18.5438 13.9381 18.5974 14.0185 18.6242C14.0989 18.6778 14.2061 18.7045 14.2866 18.7581C14.367 18.8117 14.4474 18.8385 14.5278 18.8921C14.5546 18.8921 14.5546 18.9189 14.5814 18.9189C14.6618 18.9725 14.7422 19.0261 14.8226 19.0796C15.5464 19.6155 16.1092 20.3657 16.3773 21.2231C16.5113 21.6518 16.5917 22.0804 16.5917 22.5359C16.5917 22.9914 16.5113 23.4469 16.3773 23.8756C16.1092 24.7329 15.5464 25.4831 14.8226 26.019C14.0989 26.5548 13.2144 26.8496 12.3031 26.8496C12.1958 26.8496 12.0618 26.8496 11.9546 26.8228C11.901 26.8228 11.8474 26.8228 11.7938 26.796C11.7402 26.796 11.6598 26.7692 11.6061 26.7692C11.5525 26.7692 11.4989 26.7424 11.4721 26.7424C11.4185 26.7424 11.3649 26.7156 11.3113 26.7156C11.2577 26.7156 11.2041 26.6888 11.1505 26.662H11.1237C11.0969 26.662 11.0969 26.662 11.0701 26.6352C11.0701 26.6352 11.0701 26.6352 11.0433 26.6352C10.7484 26.5816 10.5608 26.3941 10.4804 26.1261ZM10.8556 27.1711H10.8824C10.9092 27.1711 10.9361 27.1711 10.9629 27.1979C11.0165 27.2246 11.0969 27.2246 11.1505 27.2514C11.2041 27.2782 11.2845 27.2782 11.3381 27.305C11.3917 27.305 11.4453 27.3318 11.4989 27.3318C11.767 27.3854 12.035 27.3854 12.3031 27.3854C13.3484 27.3854 14.3134 27.0639 15.1443 26.4477C15.9484 25.8582 16.5917 25.0008 16.8866 24.0363C17.0474 23.554 17.1278 23.045 17.1278 22.5359C17.1278 22.0269 17.0474 21.5178 16.8866 21.0355C16.5649 20.071 15.9484 19.2136 15.1443 18.6242C15.0639 18.5706 15.0103 18.517 14.9299 18.4902C14.6618 18.3027 14.367 18.1687 14.0453 18.0347C14.0185 18.0079 13.9649 18.0079 13.9381 17.9812H13.9113C13.6969 17.9008 13.4824 17.8472 13.2412 17.7936C12.8391 17.7132 12.5711 17.3649 12.5711 16.9362C12.5711 16.6683 12.6783 16.4272 12.8927 16.2664C13.0804 16.1324 13.2948 16.0521 13.5092 16.0789C13.5629 16.0789 13.5897 16.1057 13.6433 16.1057C13.7237 16.1057 13.8041 16.1324 13.8845 16.1592C13.9381 16.1592 13.9917 16.186 14.0453 16.186C14.0989 16.2128 14.1793 16.2128 14.2329 16.2396C14.2866 16.2664 14.367 16.2932 14.4206 16.2932C14.5278 16.32 14.6618 16.3736 14.769 16.4272C15.0371 16.5343 15.2783 16.6415 15.5196 16.7755C15.5732 16.8023 15.6268 16.8291 15.6804 16.8559C15.7608 16.9094 15.868 16.963 15.9484 17.0166C16.0288 17.0702 16.1092 17.1238 16.1897 17.1774C17.3154 17.9812 18.1463 19.16 18.5752 20.4729C18.7896 21.1159 18.8969 21.8125 18.8969 22.5091C18.8969 23.2057 18.7896 23.9024 18.5752 24.5454C18.5484 24.599 18.5216 24.6793 18.5216 24.7329C18.4948 24.7865 18.468 24.8669 18.4412 24.9205C18.4144 24.9741 18.3876 25.0544 18.3608 25.108C18.2804 25.3224 18.1732 25.5367 18.0659 25.7243C18.0391 25.7778 17.9855 25.8582 17.9587 25.9118C17.9051 25.9922 17.8515 26.0994 17.7711 26.1797C17.7175 26.2333 17.6907 26.3137 17.6371 26.3673C17.5835 26.4477 17.5031 26.5548 17.4226 26.6352C17.369 26.7156 17.2886 26.796 17.235 26.8496C17.2082 26.8763 17.1814 26.9299 17.1546 26.9567C17.0742 27.0371 16.9938 27.1175 16.9134 27.1979C16.6989 27.4122 16.4309 27.6265 16.1897 27.8141C15.0639 28.6447 13.7237 29.0733 12.3299 29.0733C10.936 29.0733 9.59583 28.6447 8.47006 27.8141C7.71955 27.2514 7.04944 26.528 6.59377 25.7243C6.45975 25.5099 6.45976 25.242 6.54018 25.0008C6.64739 24.7597 6.83502 24.5722 7.10306 24.4918C7.18347 24.465 7.29069 24.4382 7.3711 24.4382C7.66594 24.4382 7.96079 24.599 8.12161 24.8669C8.47006 25.4831 8.92574 26.019 9.48863 26.4209C9.89069 26.796 10.3732 27.0371 10.8556 27.1711ZM18.468 28.9126C18.2804 29.1001 18.0391 29.1805 17.7711 29.1537C17.5031 29.1269 17.2886 28.993 17.1278 28.8054C16.8598 28.4571 16.9134 27.9748 17.235 27.6533C17.2618 27.6265 17.2618 27.6265 17.2886 27.5997C17.3422 27.5462 17.4226 27.4658 17.4763 27.3854C17.5835 27.2782 17.6639 27.1711 17.7443 27.0639C17.8247 26.9567 17.9319 26.8495 18.0123 26.7424C18.0659 26.662 18.1195 26.5816 18.1732 26.5012C18.2268 26.4477 18.2536 26.3673 18.3072 26.2869C18.334 26.2333 18.3876 26.1797 18.4144 26.0994C18.4412 26.0458 18.468 26.019 18.4948 25.9654C18.5216 25.9118 18.5752 25.8314 18.602 25.7778C18.6288 25.751 18.6288 25.6975 18.6556 25.6707C18.7092 25.5903 18.736 25.4831 18.7896 25.4027C18.8969 25.1884 18.9773 24.9741 19.0309 24.7597C19.2721 24.0631 19.3793 23.3129 19.3793 22.5627C19.3793 21.8125 19.2721 21.0623 19.0309 20.3657C18.5752 18.9457 17.6639 17.6864 16.4577 16.8023C16.3773 16.7487 16.2969 16.6683 16.1897 16.6147C16.1629 16.5879 16.136 16.5611 16.0824 16.5611C15.8948 16.454 15.7072 16.3468 15.5196 16.2396C15.4659 16.2128 15.4123 16.186 15.3587 16.1592C15.1979 16.0789 15.0639 15.9985 14.8763 15.9449C14.8226 15.9181 14.769 15.8913 14.7154 15.8913C14.635 15.8645 14.5546 15.8377 14.4742 15.8109C14.4206 15.8109 14.3938 15.7841 14.3402 15.7573C14.233 15.7305 14.0989 15.677 13.9649 15.6502C13.8845 15.6234 13.8041 15.5966 13.7237 15.5966H13.6969C13.6701 15.5966 13.6701 15.5966 13.6433 15.5966C13.6165 15.5966 13.5897 15.5966 13.5897 15.5966C13.4824 15.5698 13.3752 15.5698 13.268 15.543C12.8391 15.4894 12.5175 15.1143 12.5175 14.6856C12.5175 14.4445 12.6247 14.2034 12.8123 14.0426C12.9732 13.9087 13.1876 13.8283 13.402 13.8283C13.4556 13.8283 13.4824 13.8283 13.536 13.8283C14.9567 14.0426 16.2969 14.5785 17.4763 15.4358C18.9773 16.5343 20.1299 18.1151 20.6927 19.8566C20.9876 20.7408 21.1216 21.6517 21.1216 22.5895C21.1216 23.5272 20.9876 24.4382 20.6927 25.3224C20.2907 26.662 19.5134 27.8945 18.468 28.9126ZM20.5051 11.792C19.7814 11.3097 18.8969 11.0418 17.9587 11.0418H7.23708C6.29893 11.0418 5.4144 11.3097 4.69069 11.792C3.40409 12.6226 2.54636 14.0962 2.54636 15.7306V29.1269C2.54636 30.7881 3.40409 32.2349 4.69069 33.0655C5.4144 33.5477 6.29893 33.8157 7.23708 33.8157H17.9587C18.8969 33.8157 19.7814 33.5477 20.5051 33.0655C21.7917 32.2349 22.6494 30.7881 22.6494 29.1269V15.7306C22.6494 14.0694 21.7917 12.6226 20.5051 11.792ZM10.4804 26.1261C10.4 25.8582 10.4268 25.5635 10.6144 25.3224C10.7752 25.108 11.0433 24.9741 11.3113 24.9741C11.3917 24.9741 11.4989 24.9741 11.5793 25.0276C11.7938 25.0812 12.035 25.108 12.2762 25.108C12.8123 25.108 13.3484 24.9473 13.7773 24.6258C14.2062 24.3042 14.5546 23.8488 14.7154 23.3397C14.7958 23.0718 14.8495 22.8306 14.8495 22.5359C14.8495 22.268 14.7958 22.0001 14.7154 21.7589C14.5546 21.2499 14.233 20.7944 13.7773 20.4729C13.5897 20.3389 13.3752 20.2049 13.1608 20.1514C12.7855 20.0174 12.5711 19.6959 12.5711 19.3208C12.5711 19.0261 12.7051 18.7849 12.9464 18.6242C13.1608 18.4634 13.4288 18.4098 13.6701 18.4902C13.6969 18.4902 13.7237 18.517 13.7505 18.517C13.8577 18.5438 13.9381 18.5974 14.0185 18.6242C14.0989 18.6778 14.2061 18.7045 14.2866 18.7581C14.367 18.8117 14.4474 18.8385 14.5278 18.8921C14.5546 18.8921 14.5546 18.9189 14.5814 18.9189C14.6618 18.9725 14.7422 19.0261 14.8226 19.0796C15.5464 19.6155 16.1092 20.3657 16.3773 21.2231C16.5113 21.6518 16.5917 22.0804 16.5917 22.5359C16.5917 22.9914 16.5113 23.4469 16.3773 23.8756C16.1092 24.7329 15.5464 25.4831 14.8226 26.019C14.0989 26.5548 13.2144 26.8496 12.3031 26.8496C12.1958 26.8496 12.0618 26.8496 11.9546 26.8228C11.901 26.8228 11.8474 26.8228 11.7938 26.796C11.7402 26.796 11.6598 26.7692 11.6061 26.7692C11.5525 26.7692 11.4989 26.7424 11.4721 26.7424C11.4185 26.7424 11.3649 26.7156 11.3113 26.7156C11.2577 26.7156 11.2041 26.6888 11.1505 26.662H11.1237C11.0969 26.662 11.0969 26.662 11.0701 26.6352C11.0701 26.6352 11.0701 26.6352 11.0433 26.6352C10.7484 26.5816 10.5608 26.3941 10.4804 26.1261ZM10.8556 27.1711H10.8824C10.9092 27.1711 10.9361 27.1711 10.9629 27.1979C11.0165 27.2246 11.0969 27.2246 11.1505 27.2514C11.2041 27.2782 11.2845 27.2782 11.3381 27.305C11.3917 27.305 11.4453 27.3318 11.4989 27.3318C11.767 27.3854 12.035 27.3854 12.3031 27.3854C13.3484 27.3854 14.3134 27.0639 15.1443 26.4477C15.9484 25.8582 16.5917 25.0008 16.8866 24.0363C17.0474 23.554 17.1278 23.045 17.1278 22.5359C17.1278 22.0269 17.0474 21.5178 16.8866 21.0355C16.5649 20.071 15.9484 19.2136 15.1443 18.6242C15.0639 18.5706 15.0103 18.517 14.9299 18.4902C14.6618 18.3027 14.367 18.1687 14.0453 18.0347C14.0185 18.0079 13.9649 18.0079 13.9381 17.9812H13.9113C13.6969 17.9008 13.4824 17.8472 13.2412 17.7936C12.8391 17.7132 12.5711 17.3649 12.5711 16.9362C12.5711 16.6683 12.6783 16.4272 12.8927 16.2664C13.0804 16.1324 13.2948 16.0521 13.5092 16.0789C13.5629 16.0789 13.5897 16.1057 13.6433 16.1057C13.7237 16.1057 13.8041 16.1324 13.8845 16.1592C13.9381 16.1592 13.9917 16.186 14.0453 16.186C14.0989 16.2128 14.1793 16.2128 14.2329 16.2396C14.2866 16.2664 14.367 16.2932 14.4206 16.2932C14.5278 16.32 14.6618 16.3736 14.769 16.4272C15.0371 16.5343 15.2783 16.6415 15.5196 16.7755C15.5732 16.8023 15.6268 16.8291 15.6804 16.8559C15.7608 16.9094 15.868 16.963 15.9484 17.0166C16.0288 17.0702 16.1092 17.1238 16.1897 17.1774C17.3154 17.9812 18.1463 19.16 18.5752 20.4729C18.7896 21.1159 18.8969 21.8125 18.8969 22.5091C18.8969 23.2057 18.7896 23.9024 18.5752 24.5454C18.5484 24.599 18.5216 24.6793 18.5216 24.7329C18.4948 24.7865 18.468 24.8669 18.4412 24.9205C18.4144 24.9741 18.3876 25.0544 18.3608 25.108C18.2804 25.3224 18.1732 25.5367 18.0659 25.7243C18.0391 25.7778 17.9855 25.8582 17.9587 25.9118C17.9051 25.9922 17.8515 26.0994 17.7711 26.1797C17.7175 26.2333 17.6907 26.3137 17.6371 26.3673C17.5835 26.4477 17.5031 26.5548 17.4226 26.6352C17.369 26.7156 17.2886 26.796 17.235 26.8496C17.2082 26.8763 17.1814 26.9299 17.1546 26.9567C17.0742 27.0371 16.9938 27.1175 16.9134 27.1979C16.6989 27.4122 16.4309 27.6265 16.1897 27.8141C15.0639 28.6447 13.7237 29.0733 12.3299 29.0733C10.936 29.0733 9.59583 28.6447 8.47006 27.8141C7.71955 27.2514 7.04944 26.528 6.59377 25.7243C6.45975 25.5099 6.45976 25.242 6.54018 25.0008C6.64739 24.7597 6.83502 24.5722 7.10306 24.4918C7.18347 24.465 7.29069 24.4382 7.3711 24.4382C7.66594 24.4382 7.96079 24.599 8.12161 24.8669C8.47006 25.4831 8.92574 26.019 9.48863 26.4209C9.89069 26.796 10.3732 27.0371 10.8556 27.1711ZM18.468 28.9126C18.2804 29.1001 18.0391 29.1805 17.7711 29.1537C17.5031 29.1269 17.2886 28.993 17.1278 28.8054C16.8598 28.4571 16.9134 27.9748 17.235 27.6533C17.2618 27.6265 17.2618 27.6265 17.2886 27.5997C17.3422 27.5462 17.4226 27.4658 17.4763 27.3854C17.5835 27.2782 17.6639 27.1711 17.7443 27.0639C17.8247 26.9567 17.9319 26.8495 18.0123 26.7424C18.0659 26.662 18.1195 26.5816 18.1732 26.5012C18.2268 26.4477 18.2536 26.3673 18.3072 26.2869C18.334 26.2333 18.3876 26.1797 18.4144 26.0994C18.4412 26.0458 18.468 26.019 18.4948 25.9654C18.5216 25.9118 18.5752 25.8314 18.602 25.7778C18.6288 25.751 18.6288 25.6975 18.6556 25.6707C18.7092 25.5903 18.736 25.4831 18.7896 25.4027C18.8969 25.1884 18.9773 24.9741 19.0309 24.7597C19.2721 24.0631 19.3793 23.3129 19.3793 22.5627C19.3793 21.8125 19.2721 21.0623 19.0309 20.3657C18.5752 18.9457 17.6639 17.6864 16.4577 16.8023C16.3773 16.7487 16.2969 16.6683 16.1897 16.6147C16.1629 16.5879 16.136 16.5611 16.0824 16.5611C15.8948 16.454 15.7072 16.3468 15.5196 16.2396C15.4659 16.2128 15.4123 16.186 15.3587 16.1592C15.1979 16.0789 15.0639 15.9985 14.8763 15.9449C14.8226 15.9181 14.769 15.8913 14.7154 15.8913C14.635 15.8645 14.5546 15.8377 14.4742 15.8109C14.4206 15.8109 14.3938 15.7841 14.3402 15.7573C14.233 15.7305 14.0989 15.677 13.9649 15.6502C13.8845 15.6234 13.8041 15.5966 13.7237 15.5966H13.6969C13.6701 15.5966 13.6701 15.5966 13.6433 15.5966C13.6165 15.5966 13.5897 15.5966 13.5897 15.5966C13.4824 15.5698 13.3752 15.5698 13.268 15.543C12.8391 15.4894 12.5175 15.1143 12.5175 14.6856C12.5175 14.4445 12.6247 14.2034 12.8123 14.0426C12.9732 13.9087 13.1876 13.8283 13.402 13.8283C13.4556 13.8283 13.4824 13.8283 13.536 13.8283C14.9567 14.0426 16.2969 14.5785 17.4763 15.4358C18.9773 16.5343 20.1299 18.1151 20.6927 19.8566C20.9876 20.7408 21.1216 21.6517 21.1216 22.5895C21.1216 23.5272 20.9876 24.4382 20.6927 25.3224C20.2907 26.662 19.5134 27.8945 18.468 28.9126ZM20.5051 11.792C19.7814 11.3097 18.8969 11.0418 17.9587 11.0418H7.23708C6.29893 11.0418 5.4144 11.3097 4.69069 11.792C3.40409 12.6226 2.54636 14.0962 2.54636 15.7306V29.1269C2.54636 30.7881 3.40409 32.2349 4.69069 33.0655C5.4144 33.5477 6.29893 33.8157 7.23708 33.8157H17.9587C18.8969 33.8157 19.7814 33.5477 20.5051 33.0655C21.7917 32.2349 22.6494 30.7881 22.6494 29.1269V15.7306C22.6494 14.0694 21.7917 12.6226 20.5051 11.792ZM10.4804 26.1261C10.4 25.8582 10.4268 25.5635 10.6144 25.3224C10.7752 25.108 11.0433 24.9741 11.3113 24.9741C11.3917 24.9741 11.4989 24.9741 11.5793 25.0276C11.7938 25.0812 12.035 25.108 12.2762 25.108C12.8123 25.108 13.3484 24.9473 13.7773 24.6258C14.2062 24.3042 14.5546 23.8488 14.7154 23.3397C14.7958 23.0718 14.8495 22.8306 14.8495 22.5359C14.8495 22.268 14.7958 22.0001 14.7154 21.7589C14.5546 21.2499 14.233 20.7944 13.7773 20.4729C13.5897 20.3389 13.3752 20.2049 13.1608 20.1514C12.7855 20.0174 12.5711 19.6959 12.5711 19.3208C12.5711 19.0261 12.7051 18.7849 12.9464 18.6242C13.1608 18.4634 13.4288 18.4098 13.6701 18.4902C13.6969 18.4902 13.7237 18.517 13.7505 18.517C13.8577 18.5438 13.9381 18.5974 14.0185 18.6242C14.0989 18.6778 14.2061 18.7045 14.2866 18.7581C14.367 18.8117 14.4474 18.8385 14.5278 18.8921C14.5546 18.8921 14.5546 18.9189 14.5814 18.9189C14.6618 18.9725 14.7422 19.0261 14.8226 19.0796C15.5464 19.6155 16.1092 20.3657 16.3773 21.2231C16.5113 21.6518 16.5917 22.0804 16.5917 22.5359C16.5917 22.9914 16.5113 23.4469 16.3773 23.8756C16.1092 24.7329 15.5464 25.4831 14.8226 26.019C14.0989 26.5548 13.2144 26.8496 12.3031 26.8496C12.1958 26.8496 12.0618 26.8496 11.9546 26.8228C11.901 26.8228 11.8474 26.8228 11.7938 26.796C11.7402 26.796 11.6598 26.7692 11.6061 26.7692C11.5525 26.7692 11.4989 26.7424 11.4721 26.7424C11.4185 26.7424 11.3649 26.7156 11.3113 26.7156C11.2577 26.7156 11.2041 26.6888 11.1505 26.662H11.1237C11.0969 26.662 11.0969 26.662 11.0701 26.6352C11.0701 26.6352 11.0701 26.6352 11.0433 26.6352C10.7484 26.5816 10.5608 26.3941 10.4804 26.1261ZM10.8556 27.1711H10.8824C10.9092 27.1711 10.9361 27.1711 10.9629 27.1979C11.0165 27.2246 11.0969 27.2246 11.1505 27.2514C11.2041 27.2782 11.2845 27.2782 11.3381 27.305C11.3917 27.305 11.4453 27.3318 11.4989 27.3318C11.767 27.3854 12.035 27.3854 12.3031 27.3854C13.3484 27.3854 14.3134 27.0639 15.1443 26.4477C15.9484 25.8582 16.5917 25.0008 16.8866 24.0363C17.0474 23.554 17.1278 23.045 17.1278 22.5359C17.1278 22.0269 17.0474 21.5178 16.8866 21.0355C16.5649 20.071 15.9484 19.2136 15.1443 18.6242C15.0639 18.5706 15.0103 18.517 14.9299 18.4902C14.6618 18.3027 14.367 18.1687 14.0453 18.0347C14.0185 18.0079 13.9649 18.0079 13.9381 17.9812H13.9113C13.6969 17.9008 13.4824 17.8472 13.2412 17.7936C12.8391 17.7132 12.5711 17.3649 12.5711 16.9362C12.5711 16.6683 12.6783 16.4272 12.8927 16.2664C13.0804 16.1324 13.2948 16.0521 13.5092 16.0789C13.5629 16.0789 13.5897 16.1057 13.6433 16.1057C13.7237 16.1057 13.8041 16.1324 13.8845 16.1592C13.9381 16.1592 13.9917 16.186 14.0453 16.186C14.0989 16.2128 14.1793 16.2128 14.2329 16.2396C14.2866 16.2664 14.367 16.2932 14.4206 16.2932C14.5278 16.32 14.6618 16.3736 14.769 16.4272C15.0371 16.5343 15.2783 16.6415 15.5196 16.7755C15.5732 16.8023 15.6268 16.8291 15.6804 16.8559C15.7608 16.9094 15.868 16.963 15.9484 17.0166C16.0288 17.0702 16.1092 17.1238 16.1897 17.1774C17.3154 17.9812 18.1463 19.16 18.5752 20.4729C18.7896 21.1159 18.8969 21.8125 18.8969 22.5091C18.8969 23.2057 18.7896 23.9024 18.5752 24.5454C18.5484 24.599 18.5216 24.6793 18.5216 24.7329C18.4948 24.7865 18.468 24.8669 18.4412 24.9205C18.4144 24.9741 18.3876 25.0544 18.3608 25.108C18.2804 25.3224 18.1732 25.5367 18.0659 25.7243C18.0391 25.7778 17.9855 25.8582 17.9587 25.9118C17.9051 25.9922 17.8515 26.0994 17.7711 26.1797C17.7175 26.2333 17.6907 26.3137 17.6371 26.3673C17.5835 26.4477 17.5031 26.5548 17.4226 26.6352C17.369 26.7156 17.2886 26.796 17.235 26.8496C17.2082 26.8763 17.1814 26.9299 17.1546 26.9567C17.0742 27.0371 16.9938 27.1175 16.9134 27.1979C16.6989 27.4122 16.4309 27.6265 16.1897 27.8141C15.0639 28.6447 13.7237 29.0733 12.3299 29.0733C10.936 29.0733 9.59583 28.6447 8.47006 27.8141C7.71955 27.2514 7.04944 26.528 6.59377 25.7243C6.45975 25.5099 6.45976 25.242 6.54018 25.0008C6.64739 24.7597 6.83502 24.5722 7.10306 24.4918C7.18347 24.465 7.29069 24.4382 7.3711 24.4382C7.66594 24.4382 7.96079 24.599 8.12161 24.8669C8.47006 25.4831 8.92574 26.019 9.48863 26.4209C9.89069 26.796 10.3732 27.0371 10.8556 27.1711ZM18.468 28.9126C18.2804 29.1001 18.0391 29.1805 17.7711 29.1537C17.5031 29.1269 17.2886 28.993 17.1278 28.8054C16.8598 28.4571 16.9134 27.9748 17.235 27.6533C17.2618 27.6265 17.2618 27.6265 17.2886 27.5997C17.3422 27.5462 17.4226 27.4658 17.4763 27.3854C17.5835 27.2782 17.6639 27.1711 17.7443 27.0639C17.8247 26.9567 17.9319 26.8495 18.0123 26.7424C18.0659 26.662 18.1195 26.5816 18.1732 26.5012C18.2268 26.4477 18.2536 26.3673 18.3072 26.2869C18.334 26.2333 18.3876 26.1797 18.4144 26.0994C18.4412 26.0458 18.468 26.019 18.4948 25.9654C18.5216 25.9118 18.5752 25.8314 18.602 25.7778C18.6288 25.751 18.6288 25.6975 18.6556 25.6707C18.7092 25.5903 18.736 25.4831 18.7896 25.4027C18.8969 25.1884 18.9773 24.9741 19.0309 24.7597C19.2721 24.0631 19.3793 23.3129 19.3793 22.5627C19.3793 21.8125 19.2721 21.0623 19.0309 20.3657C18.5752 18.9457 17.6639 17.6864 16.4577 16.8023C16.3773 16.7487 16.2969 16.6683 16.1897 16.6147C16.1629 16.5879 16.136 16.5611 16.0824 16.5611C15.8948 16.454 15.7072 16.3468 15.5196 16.2396C15.4659 16.2128 15.4123 16.186 15.3587 16.1592C15.1979 16.0789 15.0639 15.9985 14.8763 15.9449C14.8226 15.9181 14.769 15.8913 14.7154 15.8913C14.635 15.8645 14.5546 15.8377 14.4742 15.8109C14.4206 15.8109 14.3938 15.7841 14.3402 15.7573C14.233 15.7305 14.0989 15.677 13.9649 15.6502C13.8845 15.6234 13.8041 15.5966 13.7237 15.5966H13.6969C13.6701 15.5966 13.6701 15.5966 13.6433 15.5966C13.6165 15.5966 13.5897 15.5966 13.5897 15.5966C13.4824 15.5698 13.3752 15.5698 13.268 15.543C12.8391 15.4894 12.5175 15.1143 12.5175 14.6856C12.5175 14.4445 12.6247 14.2034 12.8123 14.0426C12.9732 13.9087 13.1876 13.8283 13.402 13.8283C13.4556 13.8283 13.4824 13.8283 13.536 13.8283C14.9567 14.0426 16.2969 14.5785 17.4763 15.4358C18.9773 16.5343 20.1299 18.1151 20.6927 19.8566C20.9876 20.7408 21.1216 21.6517 21.1216 22.5895C21.1216 23.5272 20.9876 24.4382 20.6927 25.3224C20.2907 26.662 19.5134 27.8945 18.468 28.9126ZM24.2041 14.9C23.9896 13.2924 23.1855 11.8992 22.033 10.9079C20.934 9.97011 19.5134 9.40747 17.9587 9.40747H7.23708C5.68244 9.40747 4.26182 9.97011 3.16285 10.9079C1.79584 12.0599 0.93811 13.8015 0.93811 15.7038V29.1001C0.93811 31.0292 1.79584 32.744 3.16285 33.896C4.26182 34.8338 5.68244 35.3964 7.23708 35.3964H17.9587C19.5134 35.3964 20.934 34.8338 22.033 33.896C23.4 32.744 24.2577 31.0024 24.2577 29.1001V15.7038C24.2577 15.4626 24.2309 15.1679 24.2041 14.9ZM23.9897 29.1269C23.9897 30.9756 23.1587 32.6368 21.8185 33.7353C20.7732 34.6195 19.433 35.1285 17.9587 35.1285H7.23708C5.76285 35.1285 4.42264 34.5927 3.37728 33.7353C2.06388 32.6368 1.20615 30.9756 1.20615 29.1269V15.7306C1.20615 13.8819 2.06388 12.2207 3.37728 11.1222C4.42264 10.238 5.76285 9.72897 7.23708 9.72897H17.9587C19.433 9.72897 20.7732 10.2648 21.8185 11.1222C23.1319 12.2207 23.9897 13.8819 23.9897 15.7306V29.1269ZM20.5051 11.792C19.7814 11.3097 18.8969 11.0418 17.9587 11.0418H7.23708C6.29893 11.0418 5.4144 11.3097 4.69069 11.792C3.40409 12.6226 2.54636 14.0962 2.54636 15.7306V29.1269C2.54636 30.7881 3.40409 32.2349 4.69069 33.0655C5.4144 33.5477 6.29893 33.8157 7.23708 33.8157H17.9587C18.8969 33.8157 19.7814 33.5477 20.5051 33.0655C21.7917 32.2349 22.6494 30.7881 22.6494 29.1269V15.7306C22.6494 14.0694 21.7917 12.6226 20.5051 11.792ZM10.4804 26.1261C10.4 25.8582 10.4268 25.5635 10.6144 25.3224C10.7752 25.108 11.0433 24.9741 11.3113 24.9741C11.3917 24.9741 11.4989 24.9741 11.5793 25.0276C11.7938 25.0812 12.035 25.108 12.2762 25.108C12.8123 25.108 13.3484 24.9473 13.7773 24.6258C14.2062 24.3042 14.5546 23.8488 14.7154 23.3397C14.7958 23.0718 14.8495 22.8306 14.8495 22.5359C14.8495 22.268 14.7958 22.0001 14.7154 21.7589C14.5546 21.2499 14.233 20.7944 13.7773 20.4729C13.5897 20.3389 13.3752 20.2049 13.1608 20.1514C12.7855 20.0174 12.5711 19.6959 12.5711 19.3208C12.5711 19.0261 12.7051 18.7849 12.9464 18.6242C13.1608 18.4634 13.4288 18.4098 13.6701 18.4902C13.6969 18.4902 13.7237 18.517 13.7505 18.517C13.8577 18.5438 13.9381 18.5974 14.0185 18.6242C14.0989 18.6778 14.2061 18.7045 14.2866 18.7581C14.367 18.8117 14.4474 18.8385 14.5278 18.8921C14.5546 18.8921 14.5546 18.9189 14.5814 18.9189C14.6618 18.9725 14.7422 19.0261 14.8226 19.0796C15.5464 19.6155 16.1092 20.3657 16.3773 21.2231C16.5113 21.6518 16.5917 22.0804 16.5917 22.5359C16.5917 22.9914 16.5113 23.4469 16.3773 23.8756C16.1092 24.7329 15.5464 25.4831 14.8226 26.019C14.0989 26.5548 13.2144 26.8496 12.3031 26.8496C12.1958 26.8496 12.0618 26.8496 11.9546 26.8228C11.901 26.8228 11.8474 26.8228 11.7938 26.796C11.7402 26.796 11.6598 26.7692 11.6061 26.7692C11.5525 26.7692 11.4989 26.7424 11.4721 26.7424C11.4185 26.7424 11.3649 26.7156 11.3113 26.7156C11.2577 26.7156 11.2041 26.6888 11.1505 26.662H11.1237C11.0969 26.662 11.0969 26.662 11.0701 26.6352C11.0701 26.6352 11.0701 26.6352 11.0433 26.6352C10.7484 26.5816 10.5608 26.3941 10.4804 26.1261ZM10.8556 27.1711H10.8824C10.9092 27.1711 10.9361 27.1711 10.9629 27.1979C11.0165 27.2246 11.0969 27.2246 11.1505 27.2514C11.2041 27.2782 11.2845 27.2782 11.3381 27.305C11.3917 27.305 11.4453 27.3318 11.4989 27.3318C11.767 27.3854 12.035 27.3854 12.3031 27.3854C13.3484 27.3854 14.3134 27.0639 15.1443 26.4477C15.9484 25.8582 16.5917 25.0008 16.8866 24.0363C17.0474 23.554 17.1278 23.045 17.1278 22.5359C17.1278 22.0269 17.0474 21.5178 16.8866 21.0355C16.5649 20.071 15.9484 19.2136 15.1443 18.6242C15.0639 18.5706 15.0103 18.517 14.9299 18.4902C14.6618 18.3027 14.367 18.1687 14.0453 18.0347C14.0185 18.0079 13.9649 18.0079 13.9381 17.9812H13.9113C13.6969 17.9008 13.4824 17.8472 13.2412 17.7936C12.8391 17.7132 12.5711 17.3649 12.5711 16.9362C12.5711 16.6683 12.6783 16.4272 12.8927 16.2664C13.0804 16.1324 13.2948 16.0521 13.5092 16.0789C13.5629 16.0789 13.5897 16.1057 13.6433 16.1057C13.7237 16.1057 13.8041 16.1324 13.8845 16.1592C13.9381 16.1592 13.9917 16.186 14.0453 16.186C14.0989 16.2128 14.1793 16.2128 14.2329 16.2396C14.2866 16.2664 14.367 16.2932 14.4206 16.2932C14.5278 16.32 14.6618 16.3736 14.769 16.4272C15.0371 16.5343 15.2783 16.6415 15.5196 16.7755C15.5732 16.8023 15.6268 16.8291 15.6804 16.8559C15.7608 16.9094 15.868 16.963 15.9484 17.0166C16.0288 17.0702 16.1092 17.1238 16.1897 17.1774C17.3154 17.9812 18.1463 19.16 18.5752 20.4729C18.7896 21.1159 18.8969 21.8125 18.8969 22.5091C18.8969 23.2057 18.7896 23.9024 18.5752 24.5454C18.5484 24.599 18.5216 24.6793 18.5216 24.7329C18.4948 24.7865 18.468 24.8669 18.4412 24.9205C18.4144 24.9741 18.3876 25.0544 18.3608 25.108C18.2804 25.3224 18.1732 25.5367 18.0659 25.7243C18.0391 25.7778 17.9855 25.8582 17.9587 25.9118C17.9051 25.9922 17.8515 26.0994 17.7711 26.1797C17.7175 26.2333 17.6907 26.3137 17.6371 26.3673C17.5835 26.4477 17.5031 26.5548 17.4226 26.6352C17.369 26.7156 17.2886 26.796 17.235 26.8496C17.2082 26.8763 17.1814 26.9299 17.1546 26.9567C17.0742 27.0371 16.9938 27.1175 16.9134 27.1979C16.6989 27.4122 16.4309 27.6265 16.1897 27.8141C15.0639 28.6447 13.7237 29.0733 12.3299 29.0733C10.936 29.0733 9.59583 28.6447 8.47006 27.8141C7.71955 27.2514 7.04944 26.528 6.59377 25.7243C6.45975 25.5099 6.45976 25.242 6.54018 25.0008C6.64739 24.7597 6.83502 24.5722 7.10306 24.4918C7.18347 24.465 7.29069 24.4382 7.3711 24.4382C7.66594 24.4382 7.96079 24.599 8.12161 24.8669C8.47006 25.4831 8.92574 26.019 9.48863 26.4209C9.89069 26.796 10.3732 27.0371 10.8556 27.1711ZM18.468 28.9126C18.2804 29.1001 18.0391 29.1805 17.7711 29.1537C17.5031 29.1269 17.2886 28.993 17.1278 28.8054C16.8598 28.4571 16.9134 27.9748 17.235 27.6533C17.2618 27.6265 17.2618 27.6265 17.2886 27.5997C17.3422 27.5462 17.4226 27.4658 17.4763 27.3854C17.5835 27.2782 17.6639 27.1711 17.7443 27.0639C17.8247 26.9567 17.9319 26.8495 18.0123 26.7424C18.0659 26.662 18.1195 26.5816 18.1732 26.5012C18.2268 26.4477 18.2536 26.3673 18.3072 26.2869C18.334 26.2333 18.3876 26.1797 18.4144 26.0994C18.4412 26.0458 18.468 26.019 18.4948 25.9654C18.5216 25.9118 18.5752 25.8314 18.602 25.7778C18.6288 25.751 18.6288 25.6975 18.6556 25.6707C18.7092 25.5903 18.736 25.4831 18.7896 25.4027C18.8969 25.1884 18.9773 24.9741 19.0309 24.7597C19.2721 24.0631 19.3793 23.3129 19.3793 22.5627C19.3793 21.8125 19.2721 21.0623 19.0309 20.3657C18.5752 18.9457 17.6639 17.6864 16.4577 16.8023C16.3773 16.7487 16.2969 16.6683 16.1897 16.6147C16.1629 16.5879 16.136 16.5611 16.0824 16.5611C15.8948 16.454 15.7072 16.3468 15.5196 16.2396C15.4659 16.2128 15.4123 16.186 15.3587 16.1592C15.1979 16.0789 15.0639 15.9985 14.8763 15.9449C14.8226 15.9181 14.769 15.8913 14.7154 15.8913C14.635 15.8645 14.5546 15.8377 14.4742 15.8109C14.4206 15.8109 14.3938 15.7841 14.3402 15.7573C14.233 15.7305 14.0989 15.677 13.9649 15.6502C13.8845 15.6234 13.8041 15.5966 13.7237 15.5966H13.6969C13.6701 15.5966 13.6701 15.5966 13.6433 15.5966C13.6165 15.5966 13.5897 15.5966 13.5897 15.5966C13.4824 15.5698 13.3752 15.5698 13.268 15.543C12.8391 15.4894 12.5175 15.1143 12.5175 14.6856C12.5175 14.4445 12.6247 14.2034 12.8123 14.0426C12.9732 13.9087 13.1876 13.8283 13.402 13.8283C13.4556 13.8283 13.4824 13.8283 13.536 13.8283C14.9567 14.0426 16.2969 14.5785 17.4763 15.4358C18.9773 16.5343 20.1299 18.1151 20.6927 19.8566C20.9876 20.7408 21.1216 21.6517 21.1216 22.5895C21.1216 23.5272 20.9876 24.4382 20.6927 25.3224C20.2907 26.662 19.5134 27.8945 18.468 28.9126ZM20.5051 11.792C19.7814 11.3097 18.8969 11.0418 17.9587 11.0418H7.23708C6.29893 11.0418 5.4144 11.3097 4.69069 11.792C3.40409 12.6226 2.54636 14.0962 2.54636 15.7306V29.1269C2.54636 30.7881 3.40409 32.2349 4.69069 33.0655C5.4144 33.5477 6.29893 33.8157 7.23708 33.8157H17.9587C18.8969 33.8157 19.7814 33.5477 20.5051 33.0655C21.7917 32.2349 22.6494 30.7881 22.6494 29.1269V15.7306C22.6494 14.0694 21.7917 12.6226 20.5051 11.792ZM10.4804 26.1261C10.4 25.8582 10.4268 25.5635 10.6144 25.3224C10.7752 25.108 11.0433 24.9741 11.3113 24.9741C11.3917 24.9741 11.4989 24.9741 11.5793 25.0276C11.7938 25.0812 12.035 25.108 12.2762 25.108C12.8123 25.108 13.3484 24.9473 13.7773 24.6258C14.2062 24.3042 14.5546 23.8488 14.7154 23.3397C14.7958 23.0718 14.8495 22.8306 14.8495 22.5359C14.8495 22.268 14.7958 22.0001 14.7154 21.7589C14.5546 21.2499 14.233 20.7944 13.7773 20.4729C13.5897 20.3389 13.3752 20.2049 13.1608 20.1514C12.7855 20.0174 12.5711 19.6959 12.5711 19.3208C12.5711 19.0261 12.7051 18.7849 12.9464 18.6242C13.1608 18.4634 13.4288 18.4098 13.6701 18.4902C13.6969 18.4902 13.7237 18.517 13.7505 18.517C13.8577 18.5438 13.9381 18.5974 14.0185 18.6242C14.0989 18.6778 14.2061 18.7045 14.2866 18.7581C14.367 18.8117 14.4474 18.8385 14.5278 18.8921C14.5546 18.8921 14.5546 18.9189 14.5814 18.9189C14.6618 18.9725 14.7422 19.0261 14.8226 19.0796C15.5464 19.6155 16.1092 20.3657 16.3773 21.2231C16.5113 21.6518 16.5917 22.0804 16.5917 22.5359C16.5917 22.9914 16.5113 23.4469 16.3773 23.8756C16.1092 24.7329 15.5464 25.4831 14.8226 26.019C14.0989 26.5548 13.2144 26.8496 12.3031 26.8496C12.1958 26.8496 12.0618 26.8496 11.9546 26.8228C11.901 26.8228 11.8474 26.8228 11.7938 26.796C11.7402 26.796 11.6598 26.7692 11.6061 26.7692C11.5525 26.7692 11.4989 26.7424 11.4721 26.7424C11.4185 26.7424 11.3649 26.7156 11.3113 26.7156C11.2577 26.7156 11.2041 26.6888 11.1505 26.662H11.1237C11.0969 26.662 11.0969 26.662 11.0701 26.6352C11.0701 26.6352 11.0701 26.6352 11.0433 26.6352C10.7484 26.5816 10.5608 26.3941 10.4804 26.1261ZM10.8556 27.1711H10.8824C10.9092 27.1711 10.9361 27.1711 10.9629 27.1979C11.0165 27.2246 11.0969 27.2246 11.1505 27.2514C11.2041 27.2782 11.2845 27.2782 11.3381 27.305C11.3917 27.305 11.4453 27.3318 11.4989 27.3318C11.767 27.3854 12.035 27.3854 12.3031 27.3854C13.3484 27.3854 14.3134 27.0639 15.1443 26.4477C15.9484 25.8582 16.5917 25.0008 16.8866 24.0363C17.0474 23.554 17.1278 23.045 17.1278 22.5359C17.1278 22.0269 17.0474 21.5178 16.8866 21.0355C16.5649 20.071 15.9484 19.2136 15.1443 18.6242C15.0639 18.5706 15.0103 18.517 14.9299 18.4902C14.6618 18.3027 14.367 18.1687 14.0453 18.0347C14.0185 18.0079 13.9649 18.0079 13.9381 17.9812H13.9113C13.6969 17.9008 13.4824 17.8472 13.2412 17.7936C12.8391 17.7132 12.5711 17.3649 12.5711 16.9362C12.5711 16.6683 12.6783 16.4272 12.8927 16.2664C13.0804 16.1324 13.2948 16.0521 13.5092 16.0789C13.5629 16.0789 13.5897 16.1057 13.6433 16.1057C13.7237 16.1057 13.8041 16.1324 13.8845 16.1592C13.9381 16.1592 13.9917 16.186 14.0453 16.186C14.0989 16.2128 14.1793 16.2128 14.2329 16.2396C14.2866 16.2664 14.367 16.2932 14.4206 16.2932C14.5278 16.32 14.6618 16.3736 14.769 16.4272C15.0371 16.5343 15.2783 16.6415 15.5196 16.7755C15.5732 16.8023 15.6268 16.8291 15.6804 16.8559C15.7608 16.9094 15.868 16.963 15.9484 17.0166C16.0288 17.0702 16.1092 17.1238 16.1897 17.1774C17.3154 17.9812 18.1463 19.16 18.5752 20.4729C18.7896 21.1159 18.8969 21.8125 18.8969 22.5091C18.8969 23.2057 18.7896 23.9024 18.5752 24.5454C18.5484 24.599 18.5216 24.6793 18.5216 24.7329C18.4948 24.7865 18.468 24.8669 18.4412 24.9205C18.4144 24.9741 18.3876 25.0544 18.3608 25.108C18.2804 25.3224 18.1732 25.5367 18.0659 25.7243C18.0391 25.7778 17.9855 25.8582 17.9587 25.9118C17.9051 25.9922 17.8515 26.0994 17.7711 26.1797C17.7175 26.2333 17.6907 26.3137 17.6371 26.3673C17.5835 26.4477 17.5031 26.5548 17.4226 26.6352C17.369 26.7156 17.2886 26.796 17.235 26.8496C17.2082 26.8763 17.1814 26.9299 17.1546 26.9567C17.0742 27.0371 16.9938 27.1175 16.9134 27.1979C16.6989 27.4122 16.4309 27.6265 16.1897 27.8141C15.0639 28.6447 13.7237 29.0733 12.3299 29.0733C10.936 29.0733 9.59583 28.6447 8.47006 27.8141C7.71955 27.2514 7.04944 26.528 6.59377 25.7243C6.45975 25.5099 6.45976 25.242 6.54018 25.0008C6.64739 24.7597 6.83502 24.5722 7.10306 24.4918C7.18347 24.465 7.29069 24.4382 7.3711 24.4382C7.66594 24.4382 7.96079 24.599 8.12161 24.8669C8.47006 25.4831 8.92574 26.019 9.48863 26.4209C9.89069 26.796 10.3732 27.0371 10.8556 27.1711ZM18.468 28.9126C18.2804 29.1001 18.0391 29.1805 17.7711 29.1537C17.5031 29.1269 17.2886 28.993 17.1278 28.8054C16.8598 28.4571 16.9134 27.9748 17.235 27.6533C17.2618 27.6265 17.2618 27.6265 17.2886 27.5997C17.3422 27.5462 17.4226 27.4658 17.4763 27.3854C17.5835 27.2782 17.6639 27.1711 17.7443 27.0639C17.8247 26.9567 17.9319 26.8495 18.0123 26.7424C18.0659 26.662 18.1195 26.5816 18.1732 26.5012C18.2268 26.4477 18.2536 26.3673 18.3072 26.2869C18.334 26.2333 18.3876 26.1797 18.4144 26.0994C18.4412 26.0458 18.468 26.019 18.4948 25.9654C18.5216 25.9118 18.5752 25.8314 18.602 25.7778C18.6288 25.751 18.6288 25.6975 18.6556 25.6707C18.7092 25.5903 18.736 25.4831 18.7896 25.4027C18.8969 25.1884 18.9773 24.9741 19.0309 24.7597C19.2721 24.0631 19.3793 23.3129 19.3793 22.5627C19.3793 21.8125 19.2721 21.0623 19.0309 20.3657C18.5752 18.9457 17.6639 17.6864 16.4577 16.8023C16.3773 16.7487 16.2969 16.6683 16.1897 16.6147C16.1629 16.5879 16.136 16.5611 16.0824 16.5611C15.8948 16.454 15.7072 16.3468 15.5196 16.2396C15.4659 16.2128 15.4123 16.186 15.3587 16.1592C15.1979 16.0789 15.0639 15.9985 14.8763 15.9449C14.8226 15.9181 14.769 15.8913 14.7154 15.8913C14.635 15.8645 14.5546 15.8377 14.4742 15.8109C14.4206 15.8109 14.3938 15.7841 14.3402 15.7573C14.233 15.7305 14.0989 15.677 13.9649 15.6502C13.8845 15.6234 13.8041 15.5966 13.7237 15.5966H13.6969C13.6701 15.5966 13.6701 15.5966 13.6433 15.5966C13.6165 15.5966 13.5897 15.5966 13.5897 15.5966C13.4824 15.5698 13.3752 15.5698 13.268 15.543C12.8391 15.4894 12.5175 15.1143 12.5175 14.6856C12.5175 14.4445 12.6247 14.2034 12.8123 14.0426C12.9732 13.9087 13.1876 13.8283 13.402 13.8283C13.4556 13.8283 13.4824 13.8283 13.536 13.8283C14.9567 14.0426 16.2969 14.5785 17.4763 15.4358C18.9773 16.5343 20.1299 18.1151 20.6927 19.8566C20.9876 20.7408 21.1216 21.6517 21.1216 22.5895C21.1216 23.5272 20.9876 24.4382 20.6927 25.3224C20.2907 26.662 19.5134 27.8945 18.468 28.9126ZM20.5051 11.792C19.7814 11.3097 18.8969 11.0418 17.9587 11.0418H7.23708C6.29893 11.0418 5.4144 11.3097 4.69069 11.792C3.40409 12.6226 2.54636 14.0962 2.54636 15.7306V29.1269C2.54636 30.7881 3.40409 32.2349 4.69069 33.0655C5.4144 33.5477 6.29893 33.8157 7.23708 33.8157H17.9587C18.8969 33.8157 19.7814 33.5477 20.5051 33.0655C21.7917 32.2349 22.6494 30.7881 22.6494 29.1269V15.7306C22.6494 14.0694 21.7917 12.6226 20.5051 11.792ZM10.4804 26.1261C10.4 25.8582 10.4268 25.5635 10.6144 25.3224C10.7752 25.108 11.0433 24.9741 11.3113 24.9741C11.3917 24.9741 11.4989 24.9741 11.5793 25.0276C11.7938 25.0812 12.035 25.108 12.2762 25.108C12.8123 25.108 13.3484 24.9473 13.7773 24.6258C14.2062 24.3042 14.5546 23.8488 14.7154 23.3397C14.7958 23.0718 14.8495 22.8306 14.8495 22.5359C14.8495 22.268 14.7958 22.0001 14.7154 21.7589C14.5546 21.2499 14.233 20.7944 13.7773 20.4729C13.5897 20.3389 13.3752 20.2049 13.1608 20.1514C12.7855 20.0174 12.5711 19.6959 12.5711 19.3208C12.5711 19.0261 12.7051 18.7849 12.9464 18.6242C13.1608 18.4634 13.4288 18.4098 13.6701 18.4902C13.6969 18.4902 13.7237 18.517 13.7505 18.517C13.8577 18.5438 13.9381 18.5974 14.0185 18.6242C14.0989 18.6778 14.2061 18.7045 14.2866 18.7581C14.367 18.8117 14.4474 18.8385 14.5278 18.8921C14.5546 18.8921 14.5546 18.9189 14.5814 18.9189C14.6618 18.9725 14.7422 19.0261 14.8226 19.0796C15.5464 19.6155 16.1092 20.3657 16.3773 21.2231C16.5113 21.6518 16.5917 22.0804 16.5917 22.5359C16.5917 22.9914 16.5113 23.4469 16.3773 23.8756C16.1092 24.7329 15.5464 25.4831 14.8226 26.019C14.0989 26.5548 13.2144 26.8496 12.3031 26.8496C12.1958 26.8496 12.0618 26.8496 11.9546 26.8228C11.901 26.8228 11.8474 26.8228 11.7938 26.796C11.7402 26.796 11.6598 26.7692 11.6061 26.7692C11.5525 26.7692 11.4989 26.7424 11.4721 26.7424C11.4185 26.7424 11.3649 26.7156 11.3113 26.7156C11.2577 26.7156 11.2041 26.6888 11.1505 26.662H11.1237C11.0969 26.662 11.0969 26.662 11.0701 26.6352C11.0701 26.6352 11.0701 26.6352 11.0433 26.6352C10.7484 26.5816 10.5608 26.3941 10.4804 26.1261ZM10.8556 27.1711H10.8824C10.9092 27.1711 10.9361 27.1711 10.9629 27.1979C11.0165 27.2246 11.0969 27.2246 11.1505 27.2514C11.2041 27.2782 11.2845 27.2782 11.3381 27.305C11.3917 27.305 11.4453 27.3318 11.4989 27.3318C11.767 27.3854 12.035 27.3854 12.3031 27.3854C13.3484 27.3854 14.3134 27.0639 15.1443 26.4477C15.9484 25.8582 16.5917 25.0008 16.8866 24.0363C17.0474 23.554 17.1278 23.045 17.1278 22.5359C17.1278 22.0269 17.0474 21.5178 16.8866 21.0355C16.5649 20.071 15.9484 19.2136 15.1443 18.6242C15.0639 18.5706 15.0103 18.517 14.9299 18.4902C14.6618 18.3027 14.367 18.1687 14.0453 18.0347C14.0185 18.0079 13.9649 18.0079 13.9381 17.9812H13.9113C13.6969 17.9008 13.4824 17.8472 13.2412 17.7936C12.8391 17.7132 12.5711 17.3649 12.5711 16.9362C12.5711 16.6683 12.6783 16.4272 12.8927 16.2664C13.0804 16.1324 13.2948 16.0521 13.5092 16.0789C13.5629 16.0789 13.5897 16.1057 13.6433 16.1057C13.7237 16.1057 13.8041 16.1324 13.8845 16.1592C13.9381 16.1592 13.9917 16.186 14.0453 16.186C14.0989 16.2128 14.1793 16.2128 14.2329 16.2396C14.2866 16.2664 14.367 16.2932 14.4206 16.2932C14.5278 16.32 14.6618 16.3736 14.769 16.4272C15.0371 16.5343 15.2783 16.6415 15.5196 16.7755C15.5732 16.8023 15.6268 16.8291 15.6804 16.8559C15.7608 16.9094 15.868 16.963 15.9484 17.0166C16.0288 17.0702 16.1092 17.1238 16.1897 17.1774C17.3154 17.9812 18.1463 19.16 18.5752 20.4729C18.7896 21.1159 18.8969 21.8125 18.8969 22.5091C18.8969 23.2057 18.7896 23.9024 18.5752 24.5454C18.5484 24.599 18.5216 24.6793 18.5216 24.7329C18.4948 24.7865 18.468 24.8669 18.4412 24.9205C18.4144 24.9741 18.3876 25.0544 18.3608 25.108C18.2804 25.3224 18.1732 25.5367 18.0659 25.7243C18.0391 25.7778 17.9855 25.8582 17.9587 25.9118C17.9051 25.9922 17.8515 26.0994 17.7711 26.1797C17.7175 26.2333 17.6907 26.3137 17.6371 26.3673C17.5835 26.4477 17.5031 26.5548 17.4226 26.6352C17.369 26.7156 17.2886 26.796 17.235 26.8496C17.2082 26.8763 17.1814 26.9299 17.1546 26.9567C17.0742 27.0371 16.9938 27.1175 16.9134 27.1979C16.6989 27.4122 16.4309 27.6265 16.1897 27.8141C15.0639 28.6447 13.7237 29.0733 12.3299 29.0733C10.936 29.0733 9.59583 28.6447 8.47006 27.8141C7.71955 27.2514 7.04944 26.528 6.59377 25.7243C6.45975 25.5099 6.45976 25.242 6.54018 25.0008C6.64739 24.7597 6.83502 24.5722 7.10306 24.4918C7.18347 24.465 7.29069 24.4382 7.3711 24.4382C7.66594 24.4382 7.96079 24.599 8.12161 24.8669C8.47006 25.4831 8.92574 26.019 9.48863 26.4209C9.89069 26.796 10.3732 27.0371 10.8556 27.1711ZM18.468 28.9126C18.2804 29.1001 18.0391 29.1805 17.7711 29.1537C17.5031 29.1269 17.2886 28.993 17.1278 28.8054C16.8598 28.4571 16.9134 27.9748 17.235 27.6533C17.2618 27.6265 17.2618 27.6265 17.2886 27.5997C17.3422 27.5462 17.4226 27.4658 17.4763 27.3854C17.5835 27.2782 17.6639 27.1711 17.7443 27.0639C17.8247 26.9567 17.9319 26.8495 18.0123 26.7424C18.0659 26.662 18.1195 26.5816 18.1732 26.5012C18.2268 26.4477 18.2536 26.3673 18.3072 26.2869C18.334 26.2333 18.3876 26.1797 18.4144 26.0994C18.4412 26.0458 18.468 26.019 18.4948 25.9654C18.5216 25.9118 18.5752 25.8314 18.602 25.7778C18.6288 25.751 18.6288 25.6975 18.6556 25.6707C18.7092 25.5903 18.736 25.4831 18.7896 25.4027C18.8969 25.1884 18.9773 24.9741 19.0309 24.7597C19.2721 24.0631 19.3793 23.3129 19.3793 22.5627C19.3793 21.8125 19.2721 21.0623 19.0309 20.3657C18.5752 18.9457 17.6639 17.6864 16.4577 16.8023C16.3773 16.7487 16.2969 16.6683 16.1897 16.6147C16.1629 16.5879 16.136 16.5611 16.0824 16.5611C15.8948 16.454 15.7072 16.3468 15.5196 16.2396C15.4659 16.2128 15.4123 16.186 15.3587 16.1592C15.1979 16.0789 15.0639 15.9985 14.8763 15.9449C14.8226 15.9181 14.769 15.8913 14.7154 15.8913C14.635 15.8645 14.5546 15.8377 14.4742 15.8109C14.4206 15.8109 14.3938 15.7841 14.3402 15.7573C14.233 15.7305 14.0989 15.677 13.9649 15.6502C13.8845 15.6234 13.8041 15.5966 13.7237 15.5966H13.6969C13.6701 15.5966 13.6701 15.5966 13.6433 15.5966C13.6165 15.5966 13.5897 15.5966 13.5897 15.5966C13.4824 15.5698 13.3752 15.5698 13.268 15.543C12.8391 15.4894 12.5175 15.1143 12.5175 14.6856C12.5175 14.4445 12.6247 14.2034 12.8123 14.0426C12.9732 13.9087 13.1876 13.8283 13.402 13.8283C13.4556 13.8283 13.4824 13.8283 13.536 13.8283C14.9567 14.0426 16.2969 14.5785 17.4763 15.4358C18.9773 16.5343 20.1299 18.1151 20.6927 19.8566C20.9876 20.7408 21.1216 21.6517 21.1216 22.5895C21.1216 23.5272 20.9876 24.4382 20.6927 25.3224C20.2907 26.662 19.5134 27.8945 18.468 28.9126ZM20.5051 11.792C19.7814 11.3097 18.8969 11.0418 17.9587 11.0418H7.23708C6.29893 11.0418 5.4144 11.3097 4.69069 11.792C3.40409 12.6226 2.54636 14.0962 2.54636 15.7306V29.1269C2.54636 30.7881 3.40409 32.2349 4.69069 33.0655C5.4144 33.5477 6.29893 33.8157 7.23708 33.8157H17.9587C18.8969 33.8157 19.7814 33.5477 20.5051 33.0655C21.7917 32.2349 22.6494 30.7881 22.6494 29.1269V15.7306C22.6494 14.0694 21.7917 12.6226 20.5051 11.792ZM10.4804 26.1261C10.4 25.8582 10.4268 25.5635 10.6144 25.3224C10.7752 25.108 11.0433 24.9741 11.3113 24.9741C11.3917 24.9741 11.4989 24.9741 11.5793 25.0276C11.7938 25.0812 12.035 25.108 12.2762 25.108C12.8123 25.108 13.3484 24.9473 13.7773 24.6258C14.2062 24.3042 14.5546 23.8488 14.7154 23.3397C14.7958 23.0718 14.8495 22.8306 14.8495 22.5359C14.8495 22.268 14.7958 22.0001 14.7154 21.7589C14.5546 21.2499 14.233 20.7944 13.7773 20.4729C13.5897 20.3389 13.3752 20.2049 13.1608 20.1514C12.7855 20.0174 12.5711 19.6959 12.5711 19.3208C12.5711 19.0261 12.7051 18.7849 12.9464 18.6242C13.1608 18.4634 13.4288 18.4098 13.6701 18.4902C13.6969 18.4902 13.7237 18.517 13.7505 18.517C13.8577 18.5438 13.9381 18.5974 14.0185 18.6242C14.0989 18.6778 14.2061 18.7045 14.2866 18.7581C14.367 18.8117 14.4474 18.8385 14.5278 18.8921C14.5546 18.8921 14.5546 18.9189 14.5814 18.9189C14.6618 18.9725 14.7422 19.0261 14.8226 19.0796C15.5464 19.6155 16.1092 20.3657 16.3773 21.2231C16.5113 21.6518 16.5917 22.0804 16.5917 22.5359C16.5917 22.9914 16.5113 23.4469 16.3773 23.8756C16.1092 24.7329 15.5464 25.4831 14.8226 26.019C14.0989 26.5548 13.2144 26.8496 12.3031 26.8496C12.1958 26.8496 12.0618 26.8496 11.9546 26.8228C11.901 26.8228 11.8474 26.8228 11.7938 26.796C11.7402 26.796 11.6598 26.7692 11.6061 26.7692C11.5525 26.7692 11.4989 26.7424 11.4721 26.7424C11.4185 26.7424 11.3649 26.7156 11.3113 26.7156C11.2577 26.7156 11.2041 26.6888 11.1505 26.662H11.1237C11.0969 26.662 11.0969 26.662 11.0701 26.6352C11.0701 26.6352 11.0701 26.6352 11.0433 26.6352C10.7484 26.5816 10.5608 26.3941 10.4804 26.1261ZM10.8556 27.1711H10.8824C10.9092 27.1711 10.9361 27.1711 10.9629 27.1979C11.0165 27.2246 11.0969 27.2246 11.1505 27.2514C11.2041 27.2782 11.2845 27.2782 11.3381 27.305C11.3917 27.305 11.4453 27.3318 11.4989 27.3318C11.767 27.3854 12.035 27.3854 12.3031 27.3854C13.3484 27.3854 14.3134 27.0639 15.1443 26.4477C15.9484 25.8582 16.5917 25.0008 16.8866 24.0363C17.0474 23.554 17.1278 23.045 17.1278 22.5359C17.1278 22.0269 17.0474 21.5178 16.8866 21.0355C16.5649 20.071 15.9484 19.2136 15.1443 18.6242C15.0639 18.5706 15.0103 18.517 14.9299 18.4902C14.6618 18.3027 14.367 18.1687 14.0453 18.0347C14.0185 18.0079 13.9649 18.0079 13.9381 17.9812H13.9113C13.6969 17.9008 13.4824 17.8472 13.2412 17.7936C12.8391 17.7132 12.5711 17.3649 12.5711 16.9362C12.5711 16.6683 12.6783 16.4272 12.8927 16.2664C13.0804 16.1324 13.2948 16.0521 13.5092 16.0789C13.5629 16.0789 13.5897 16.1057 13.6433 16.1057C13.7237 16.1057 13.8041 16.1324 13.8845 16.1592C13.9381 16.1592 13.9917 16.186 14.0453 16.186C14.0989 16.2128 14.1793 16.2128 14.2329 16.2396C14.2866 16.2664 14.367 16.2932 14.4206 16.2932C14.5278 16.32 14.6618 16.3736 14.769 16.4272C15.0371 16.5343 15.2783 16.6415 15.5196 16.7755C15.5732 16.8023 15.6268 16.8291 15.6804 16.8559C15.7608 16.9094 15.868 16.963 15.9484 17.0166C16.0288 17.0702 16.1092 17.1238 16.1897 17.1774C17.3154 17.9812 18.1463 19.16 18.5752 20.4729C18.7896 21.1159 18.8969 21.8125 18.8969 22.5091C18.8969 23.2057 18.7896 23.9024 18.5752 24.5454C18.5484 24.599 18.5216 24.6793 18.5216 24.7329C18.4948 24.7865 18.468 24.8669 18.4412 24.9205C18.4144 24.9741 18.3876 25.0544 18.3608 25.108C18.2804 25.3224 18.1732 25.5367 18.0659 25.7243C18.0391 25.7778 17.9855 25.8582 17.9587 25.9118C17.9051 25.9922 17.8515 26.0994 17.7711 26.1797C17.7175 26.2333 17.6907 26.3137 17.6371 26.3673C17.5835 26.4477 17.5031 26.5548 17.4226 26.6352C17.369 26.7156 17.2886 26.796 17.235 26.8496C17.2082 26.8763 17.1814 26.9299 17.1546 26.9567C17.0742 27.0371 16.9938 27.1175 16.9134 27.1979C16.6989 27.4122 16.4309 27.6265 16.1897 27.8141C15.0639 28.6447 13.7237 29.0733 12.3299 29.0733C10.936 29.0733 9.59583 28.6447 8.47006 27.8141C7.71955 27.2514 7.04944 26.528 6.59377 25.7243C6.45975 25.5099 6.45976 25.242 6.54018 25.0008C6.64739 24.7597 6.83502 24.5722 7.10306 24.4918C7.18347 24.465 7.29069 24.4382 7.3711 24.4382C7.66594 24.4382 7.96079 24.599 8.12161 24.8669C8.47006 25.4831 8.92574 26.019 9.48863 26.4209C9.89069 26.796 10.3732 27.0371 10.8556 27.1711ZM18.468 28.9126C18.2804 29.1001 18.0391 29.1805 17.7711 29.1537C17.5031 29.1269 17.2886 28.993 17.1278 28.8054C16.8598 28.4571 16.9134 27.9748 17.235 27.6533C17.2618 27.6265 17.2618 27.6265 17.2886 27.5997C17.3422 27.5462 17.4226 27.4658 17.4763 27.3854C17.5835 27.2782 17.6639 27.1711 17.7443 27.0639C17.8247 26.9567 17.9319 26.8495 18.0123 26.7424C18.0659 26.662 18.1195 26.5816 18.1732 26.5012C18.2268 26.4477 18.2536 26.3673 18.3072 26.2869C18.334 26.2333 18.3876 26.1797 18.4144 26.0994C18.4412 26.0458 18.468 26.019 18.4948 25.9654C18.5216 25.9118 18.5752 25.8314 18.602 25.7778C18.6288 25.751 18.6288 25.6975 18.6556 25.6707C18.7092 25.5903 18.736 25.4831 18.7896 25.4027C18.8969 25.1884 18.9773 24.9741 19.0309 24.7597C19.2721 24.0631 19.3793 23.3129 19.3793 22.5627C19.3793 21.8125 19.2721 21.0623 19.0309 20.3657C18.5752 18.9457 17.6639 17.6864 16.4577 16.8023C16.3773 16.7487 16.2969 16.6683 16.1897 16.6147C16.1629 16.5879 16.136 16.5611 16.0824 16.5611C15.8948 16.454 15.7072 16.3468 15.5196 16.2396C15.4659 16.2128 15.4123 16.186 15.3587 16.1592C15.1979 16.0789 15.0639 15.9985 14.8763 15.9449C14.8226 15.9181 14.769 15.8913 14.7154 15.8913C14.635 15.8645 14.5546 15.8377 14.4742 15.8109C14.4206 15.8109 14.3938 15.7841 14.3402 15.7573C14.233 15.7305 14.0989 15.677 13.9649 15.6502C13.8845 15.6234 13.8041 15.5966 13.7237 15.5966H13.6969C13.6701 15.5966 13.6701 15.5966 13.6433 15.5966C13.6165 15.5966 13.5897 15.5966 13.5897 15.5966C13.4824 15.5698 13.3752 15.5698 13.268 15.543C12.8391 15.4894 12.5175 15.1143 12.5175 14.6856C12.5175 14.4445 12.6247 14.2034 12.8123 14.0426C12.9732 13.9087 13.1876 13.8283 13.402 13.8283C13.4556 13.8283 13.4824 13.8283 13.536 13.8283C14.9567 14.0426 16.2969 14.5785 17.4763 15.4358C18.9773 16.5343 20.1299 18.1151 20.6927 19.8566C20.9876 20.7408 21.1216 21.6517 21.1216 22.5895C21.1216 23.5272 20.9876 24.4382 20.6927 25.3224C20.2907 26.662 19.5134 27.8945 18.468 28.9126ZM20.5051 11.792C19.7814 11.3097 18.8969 11.0418 17.9587 11.0418H7.23708C6.29893 11.0418 5.4144 11.3097 4.69069 11.792C3.40409 12.6226 2.54636 14.0962 2.54636 15.7306V29.1269C2.54636 30.7881 3.40409 32.2349 4.69069 33.0655C5.4144 33.5477 6.29893 33.8157 7.23708 33.8157H17.9587C18.8969 33.8157 19.7814 33.5477 20.5051 33.0655C21.7917 32.2349 22.6494 30.7881 22.6494 29.1269V15.7306C22.6494 14.0694 21.7917 12.6226 20.5051 11.792ZM10.4804 26.1261C10.4 25.8582 10.4268 25.5635 10.6144 25.3224C10.7752 25.108 11.0433 24.9741 11.3113 24.9741C11.3917 24.9741 11.4989 24.9741 11.5793 25.0276C11.7938 25.0812 12.035 25.108 12.2762 25.108C12.8123 25.108 13.3484 24.9473 13.7773 24.6258C14.2062 24.3042 14.5546 23.8488 14.7154 23.3397C14.7958 23.0718 14.8495 22.8306 14.8495 22.5359C14.8495 22.268 14.7958 22.0001 14.7154 21.7589C14.5546 21.2499 14.233 20.7944 13.7773 20.4729C13.5897 20.3389 13.3752 20.2049 13.1608 20.1514C12.7855 20.0174 12.5711 19.6959 12.5711 19.3208C12.5711 19.0261 12.7051 18.7849 12.9464 18.6242C13.1608 18.4634 13.4288 18.4098 13.6701 18.4902C13.6969 18.4902 13.7237 18.517 13.7505 18.517C13.8577 18.5438 13.9381 18.5974 14.0185 18.6242C14.0989 18.6778 14.2061 18.7045 14.2866 18.7581C14.367 18.8117 14.4474 18.8385 14.5278 18.8921C14.5546 18.8921 14.5546 18.9189 14.5814 18.9189C14.6618 18.9725 14.7422 19.0261 14.8226 19.0796C15.5464 19.6155 16.1092 20.3657 16.3773 21.2231C16.5113 21.6518 16.5917 22.0804 16.5917 22.5359C16.5917 22.9914 16.5113 23.4469 16.3773 23.8756C16.1092 24.7329 15.5464 25.4831 14.8226 26.019C14.0989 26.5548 13.2144 26.8496 12.3031 26.8496C12.1958 26.8496 12.0618 26.8496 11.9546 26.8228C11.901 26.8228 11.8474 26.8228 11.7938 26.796C11.7402 26.796 11.6598 26.7692 11.6061 26.7692C11.5525 26.7692 11.4989 26.7424 11.4721 26.7424C11.4185 26.7424 11.3649 26.7156 11.3113 26.7156C11.2577 26.7156 11.2041 26.6888 11.1505 26.662H11.1237C11.0969 26.662 11.0969 26.662 11.0701 26.6352C11.0701 26.6352 11.0701 26.6352 11.0433 26.6352C10.7484 26.5816 10.5608 26.3941 10.4804 26.1261ZM10.8556 27.1711H10.8824C10.9092 27.1711 10.9361 27.1711 10.9629 27.1979C11.0165 27.2246 11.0969 27.2246 11.1505 27.2514C11.2041 27.2782 11.2845 27.2782 11.3381 27.305C11.3917 27.305 11.4453 27.3318 11.4989 27.3318C11.767 27.3854 12.035 27.3854 12.3031 27.3854C13.3484 27.3854 14.3134 27.0639 15.1443 26.4477C15.9484 25.8582 16.5917 25.0008 16.8866 24.0363C17.0474 23.554 17.1278 23.045 17.1278 22.5359C17.1278 22.0269 17.0474 21.5178 16.8866 21.0355C16.5649 20.071 15.9484 19.2136 15.1443 18.6242C15.0639 18.5706 15.0103 18.517 14.9299 18.4902C14.6618 18.3027 14.367 18.1687 14.0453 18.0347C14.0185 18.0079 13.9649 18.0079 13.9381 17.9812H13.9113C13.6969 17.9008 13.4824 17.8472 13.2412 17.7936C12.8391 17.7132 12.5711 17.3649 12.5711 16.9362C12.5711 16.6683 12.6783 16.4272 12.8927 16.2664C13.0804 16.1324 13.2948 16.0521 13.5092 16.0789C13.5629 16.0789 13.5897 16.1057 13.6433 16.1057C13.7237 16.1057 13.8041 16.1324 13.8845 16.1592C13.9381 16.1592 13.9917 16.186 14.0453 16.186C14.0989 16.2128 14.1793 16.2128 14.2329 16.2396C14.2866 16.2664 14.367 16.2932 14.4206 16.2932C14.5278 16.32 14.6618 16.3736 14.769 16.4272C15.0371 16.5343 15.2783 16.6415 15.5196 16.7755C15.5732 16.8023 15.6268 16.8291 15.6804 16.8559C15.7608 16.9094 15.868 16.963 15.9484 17.0166C16.0288 17.0702 16.1092 17.1238 16.1897 17.1774C17.3154 17.9812 18.1463 19.16 18.5752 20.4729C18.7896 21.1159 18.8969 21.8125 18.8969 22.5091C18.8969 23.2057 18.7896 23.9024 18.5752 24.5454C18.5484 24.599 18.5216 24.6793 18.5216 24.7329C18.4948 24.7865 18.468 24.8669 18.4412 24.9205C18.4144 24.9741 18.3876 25.0544 18.3608 25.108C18.2804 25.3224 18.1732 25.5367 18.0659 25.7243C18.0391 25.7778 17.9855 25.8582 17.9587 25.9118C17.9051 25.9922 17.8515 26.0994 17.7711 26.1797C17.7175 26.2333 17.6907 26.3137 17.6371 26.3673C17.5835 26.4477 17.5031 26.5548 17.4226 26.6352C17.369 26.7156 17.2886 26.796 17.235 26.8496C17.2082 26.8763 17.1814 26.9299 17.1546 26.9567C17.0742 27.0371 16.9938 27.1175 16.9134 27.1979C16.6989 27.4122 16.4309 27.6265 16.1897 27.8141C15.0639 28.6447 13.7237 29.0733 12.3299 29.0733C10.936 29.0733 9.59583 28.6447 8.47006 27.8141C7.71955 27.2514 7.04944 26.528 6.59377 25.7243C6.45975 25.5099 6.45976 25.242 6.54018 25.0008C6.64739 24.7597 6.83502 24.5722 7.10306 24.4918C7.18347 24.465 7.29069 24.4382 7.3711 24.4382C7.66594 24.4382 7.96079 24.599 8.12161 24.8669C8.47006 25.4831 8.92574 26.019 9.48863 26.4209C9.89069 26.796 10.3732 27.0371 10.8556 27.1711ZM18.468 28.9126C18.2804 29.1001 18.0391 29.1805 17.7711 29.1537C17.5031 29.1269 17.2886 28.993 17.1278 28.8054C16.8598 28.4571 16.9134 27.9748 17.235 27.6533C17.2618 27.6265 17.2618 27.6265 17.2886 27.5997C17.3422 27.5462 17.4226 27.4658 17.4763 27.3854C17.5835 27.2782 17.6639 27.1711 17.7443 27.0639C17.8247 26.9567 17.9319 26.8495 18.0123 26.7424C18.0659 26.662 18.1195 26.5816 18.1732 26.5012C18.2268 26.4477 18.2536 26.3673 18.3072 26.2869C18.334 26.2333 18.3876 26.1797 18.4144 26.0994C18.4412 26.0458 18.468 26.019 18.4948 25.9654C18.5216 25.9118 18.5752 25.8314 18.602 25.7778C18.6288 25.751 18.6288 25.6975 18.6556 25.6707C18.7092 25.5903 18.736 25.4831 18.7896 25.4027C18.8969 25.1884 18.9773 24.9741 19.0309 24.7597C19.2721 24.0631 19.3793 23.3129 19.3793 22.5627C19.3793 21.8125 19.2721 21.0623 19.0309 20.3657C18.5752 18.9457 17.6639 17.6864 16.4577 16.8023C16.3773 16.7487 16.2969 16.6683 16.1897 16.6147C16.1629 16.5879 16.136 16.5611 16.0824 16.5611C15.8948 16.454 15.7072 16.3468 15.5196 16.2396C15.4659 16.2128 15.4123 16.186 15.3587 16.1592C15.1979 16.0789 15.0639 15.9985 14.8763 15.9449C14.8226 15.9181 14.769 15.8913 14.7154 15.8913C14.635 15.8645 14.5546 15.8377 14.4742 15.8109C14.4206 15.8109 14.3938 15.7841 14.3402 15.7573C14.233 15.7305 14.0989 15.677 13.9649 15.6502C13.8845 15.6234 13.8041 15.5966 13.7237 15.5966H13.6969C13.6701 15.5966 13.6701 15.5966 13.6433 15.5966C13.6165 15.5966 13.5897 15.5966 13.5897 15.5966C13.4824 15.5698 13.3752 15.5698 13.268 15.543C12.8391 15.4894 12.5175 15.1143 12.5175 14.6856C12.5175 14.4445 12.6247 14.2034 12.8123 14.0426C12.9732 13.9087 13.1876 13.8283 13.402 13.8283C13.4556 13.8283 13.4824 13.8283 13.536 13.8283C14.9567 14.0426 16.2969 14.5785 17.4763 15.4358C18.9773 16.5343 20.1299 18.1151 20.6927 19.8566C20.9876 20.7408 21.1216 21.6517 21.1216 22.5895C21.1216 23.5272 20.9876 24.4382 20.6927 25.3224C20.2907 26.662 19.5134 27.8945 18.468 28.9126ZM20.5051 11.792C19.7814 11.3097 18.8969 11.0418 17.9587 11.0418H7.23708C6.29893 11.0418 5.4144 11.3097 4.69069 11.792C3.40409 12.6226 2.54636 14.0962 2.54636 15.7306V29.1269C2.54636 30.7881 3.40409 32.2349 4.69069 33.0655C5.4144 33.5477 6.29893 33.8157 7.23708 33.8157H17.9587C18.8969 33.8157 19.7814 33.5477 20.5051 33.0655C21.7917 32.2349 22.6494 30.7881 22.6494 29.1269V15.7306C22.6494 14.0694 21.7917 12.6226 20.5051 11.792ZM10.4804 26.1261C10.4 25.8582 10.4268 25.5635 10.6144 25.3224C10.7752 25.108 11.0433 24.9741 11.3113 24.9741C11.3917 24.9741 11.4989 24.9741 11.5793 25.0276C11.7938 25.0812 12.035 25.108 12.2762 25.108C12.8123 25.108 13.3484 24.9473 13.7773 24.6258C14.2062 24.3042 14.5546 23.8488 14.7154 23.3397C14.7958 23.0718 14.8495 22.8306 14.8495 22.5359C14.8495 22.268 14.7958 22.0001 14.7154 21.7589C14.5546 21.2499 14.233 20.7944 13.7773 20.4729C13.5897 20.3389 13.3752 20.2049 13.1608 20.1514C12.7855 20.0174 12.5711 19.6959 12.5711 19.3208C12.5711 19.0261 12.7051 18.7849 12.9464 18.6242C13.1608 18.4634 13.4288 18.4098 13.6701 18.4902C13.6969 18.4902 13.7237 18.517 13.7505 18.517C13.8577 18.5438 13.9381 18.5974 14.0185 18.6242C14.0989 18.6778 14.2061 18.7045 14.2866 18.7581C14.367 18.8117 14.4474 18.8385 14.5278 18.8921C14.5546 18.8921 14.5546 18.9189 14.5814 18.9189C14.6618 18.9725 14.7422 19.0261 14.8226 19.0796C15.5464 19.6155 16.1092 20.3657 16.3773 21.2231C16.5113 21.6518 16.5917 22.0804 16.5917 22.5359C16.5917 22.9914 16.5113 23.4469 16.3773 23.8756C16.1092 24.7329 15.5464 25.4831 14.8226 26.019C14.0989 26.5548 13.2144 26.8496 12.3031 26.8496C12.1958 26.8496 12.0618 26.8496 11.9546 26.8228C11.901 26.8228 11.8474 26.8228 11.7938 26.796C11.7402 26.796 11.6598 26.7692 11.6061 26.7692C11.5525 26.7692 11.4989 26.7424 11.4721 26.7424C11.4185 26.7424 11.3649 26.7156 11.3113 26.7156C11.2577 26.7156 11.2041 26.6888 11.1505 26.662H11.1237C11.0969 26.662 11.0969 26.662 11.0701 26.6352C11.0701 26.6352 11.0701 26.6352 11.0433 26.6352C10.7484 26.5816 10.5608 26.3941 10.4804 26.1261ZM10.8556 27.1711H10.8824C10.9092 27.1711 10.9361 27.1711 10.9629 27.1979C11.0165 27.2246 11.0969 27.2246 11.1505 27.2514C11.2041 27.2782 11.2845 27.2782 11.3381 27.305C11.3917 27.305 11.4453 27.3318 11.4989 27.3318C11.767 27.3854 12.035 27.3854 12.3031 27.3854C13.3484 27.3854 14.3134 27.0639 15.1443 26.4477C15.9484 25.8582 16.5917 25.0008 16.8866 24.0363C17.0474 23.554 17.1278 23.045 17.1278 22.5359C17.1278 22.0269 17.0474 21.5178 16.8866 21.0355C16.5649 20.071 15.9484 19.2136 15.1443 18.6242C15.0639 18.5706 15.0103 18.517 14.9299 18.4902C14.6618 18.3027 14.367 18.1687 14.0453 18.0347C14.0185 18.0079 13.9649 18.0079 13.9381 17.9812H13.9113C13.6969 17.9008 13.4824 17.8472 13.2412 17.7936C12.8391 17.7132 12.5711 17.3649 12.5711 16.9362C12.5711 16.6683 12.6783 16.4272 12.8927 16.2664C13.0804 16.1324 13.2948 16.0521 13.5092 16.0789C13.5629 16.0789 13.5897 16.1057 13.6433 16.1057C13.7237 16.1057 13.8041 16.1324 13.8845 16.1592C13.9381 16.1592 13.9917 16.186 14.0453 16.186C14.0989 16.2128 14.1793 16.2128 14.2329 16.2396C14.2866 16.2664 14.367 16.2932 14.4206 16.2932C14.5278 16.32 14.6618 16.3736 14.769 16.4272C15.0371 16.5343 15.2783 16.6415 15.5196 16.7755C15.5732 16.8023 15.6268 16.8291 15.6804 16.8559C15.7608 16.9094 15.868 16.963 15.9484 17.0166C16.0288 17.0702 16.1092 17.1238 16.1897 17.1774C17.3154 17.9812 18.1463 19.16 18.5752 20.4729C18.7896 21.1159 18.8969 21.8125 18.8969 22.5091C18.8969 23.2057 18.7896 23.9024 18.5752 24.5454C18.5484 24.599 18.5216 24.6793 18.5216 24.7329C18.4948 24.7865 18.468 24.8669 18.4412 24.9205C18.4144 24.9741 18.3876 25.0544 18.3608 25.108C18.2804 25.3224 18.1732 25.5367 18.0659 25.7243C18.0391 25.7778 17.9855 25.8582 17.9587 25.9118C17.9051 25.9922 17.8515 26.0994 17.7711 26.1797C17.7175 26.2333 17.6907 26.3137 17.6371 26.3673C17.5835 26.4477 17.5031 26.5548 17.4226 26.6352C17.369 26.7156 17.2886 26.796 17.235 26.8496C17.2082 26.8763 17.1814 26.9299 17.1546 26.9567C17.0742 27.0371 16.9938 27.1175 16.9134 27.1979C16.6989 27.4122 16.4309 27.6265 16.1897 27.8141C15.0639 28.6447 13.7237 29.0733 12.3299 29.0733C10.936 29.0733 9.59583 28.6447 8.47006 27.8141C7.71955 27.2514 7.04944 26.528 6.59377 25.7243C6.45975 25.5099 6.45976 25.242 6.54018 25.0008C6.64739 24.7597 6.83502 24.5722 7.10306 24.4918C7.18347 24.465 7.29069 24.4382 7.3711 24.4382C7.66594 24.4382 7.96079 24.599 8.12161 24.8669C8.47006 25.4831 8.92574 26.019 9.48863 26.4209C9.89069 26.796 10.3732 27.0371 10.8556 27.1711ZM18.468 28.9126C18.2804 29.1001 18.0391 29.1805 17.7711 29.1537C17.5031 29.1269 17.2886 28.993 17.1278 28.8054C16.8598 28.4571 16.9134 27.9748 17.235 27.6533C17.2618 27.6265 17.2618 27.6265 17.2886 27.5997C17.3422 27.5462 17.4226 27.4658 17.4763 27.3854C17.5835 27.2782 17.6639 27.1711 17.7443 27.0639C17.8247 26.9567 17.9319 26.8495 18.0123 26.7424C18.0659 26.662 18.1195 26.5816 18.1732 26.5012C18.2268 26.4477 18.2536 26.3673 18.3072 26.2869C18.334 26.2333 18.3876 26.1797 18.4144 26.0994C18.4412 26.0458 18.468 26.019 18.4948 25.9654C18.5216 25.9118 18.5752 25.8314 18.602 25.7778C18.6288 25.751 18.6288 25.6975 18.6556 25.6707C18.7092 25.5903 18.736 25.4831 18.7896 25.4027C18.8969 25.1884 18.9773 24.9741 19.0309 24.7597C19.2721 24.0631 19.3793 23.3129 19.3793 22.5627C19.3793 21.8125 19.2721 21.0623 19.0309 20.3657C18.5752 18.9457 17.6639 17.6864 16.4577 16.8023C16.3773 16.7487 16.2969 16.6683 16.1897 16.6147C16.1629 16.5879 16.136 16.5611 16.0824 16.5611C15.8948 16.454 15.7072 16.3468 15.5196 16.2396C15.4659 16.2128 15.4123 16.186 15.3587 16.1592C15.1979 16.0789 15.0639 15.9985 14.8763 15.9449C14.8226 15.9181 14.769 15.8913 14.7154 15.8913C14.635 15.8645 14.5546 15.8377 14.4742 15.8109C14.4206 15.8109 14.3938 15.7841 14.3402 15.7573C14.233 15.7305 14.0989 15.677 13.9649 15.6502C13.8845 15.6234 13.8041 15.5966 13.7237 15.5966H13.6969C13.6701 15.5966 13.6701 15.5966 13.6433 15.5966C13.6165 15.5966 13.5897 15.5966 13.5897 15.5966C13.4824 15.5698 13.3752 15.5698 13.268 15.543C12.8391 15.4894 12.5175 15.1143 12.5175 14.6856C12.5175 14.4445 12.6247 14.2034 12.8123 14.0426C12.9732 13.9087 13.1876 13.8283 13.402 13.8283C13.4556 13.8283 13.4824 13.8283 13.536 13.8283C14.9567 14.0426 16.2969 14.5785 17.4763 15.4358C18.9773 16.5343 20.1299 18.1151 20.6927 19.8566C20.9876 20.7408 21.1216 21.6517 21.1216 22.5895C21.1216 23.5272 20.9876 24.4382 20.6927 25.3224C20.2907 26.662 19.5134 27.8945 18.468 28.9126ZM20.5051 11.792C19.7814 11.3097 18.8969 11.0418 17.9587 11.0418H7.23708C6.29893 11.0418 5.4144 11.3097 4.69069 11.792C3.40409 12.6226 2.54636 14.0962 2.54636 15.7306V29.1269C2.54636 30.7881 3.40409 32.2349 4.69069 33.0655C5.4144 33.5477 6.29893 33.8157 7.23708 33.8157H17.9587C18.8969 33.8157 19.7814 33.5477 20.5051 33.0655C21.7917 32.2349 22.6494 30.7881 22.6494 29.1269V15.7306C22.6494 14.0694 21.7917 12.6226 20.5051 11.792ZM10.4804 26.1261C10.4 25.8582 10.4268 25.5635 10.6144 25.3224C10.7752 25.108 11.0433 24.9741 11.3113 24.9741C11.3917 24.9741 11.4989 24.9741 11.5793 25.0276C11.7938 25.0812 12.035 25.108 12.2762 25.108C12.8123 25.108 13.3484 24.9473 13.7773 24.6258C14.2062 24.3042 14.5546 23.8488 14.7154 23.3397C14.7958 23.0718 14.8495 22.8306 14.8495 22.5359C14.8495 22.268 14.7958 22.0001 14.7154 21.7589C14.5546 21.2499 14.233 20.7944 13.7773 20.4729C13.5897 20.3389 13.3752 20.2049 13.1608 20.1514C12.7855 20.0174 12.5711 19.6959 12.5711 19.3208C12.5711 19.0261 12.7051 18.7849 12.9464 18.6242C13.1608 18.4634 13.4288 18.4098 13.6701 18.4902C13.6969 18.4902 13.7237 18.517 13.7505 18.517C13.8577 18.5438 13.9381 18.5974 14.0185 18.6242C14.0989 18.6778 14.2061 18.7045 14.2866 18.7581C14.367 18.8117 14.4474 18.8385 14.5278 18.8921C14.5546 18.8921 14.5546 18.9189 14.5814 18.9189C14.6618 18.9725 14.7422 19.0261 14.8226 19.0796C15.5464 19.6155 16.1092 20.3657 16.3773 21.2231C16.5113 21.6518 16.5917 22.0804 16.5917 22.5359C16.5917 22.9914 16.5113 23.4469 16.3773 23.8756C16.1092 24.7329 15.5464 25.4831 14.8226 26.019C14.0989 26.5548 13.2144 26.8496 12.3031 26.8496C12.1958 26.8496 12.0618 26.8496 11.9546 26.8228C11.901 26.8228 11.8474 26.8228 11.7938 26.796C11.7402 26.796 11.6598 26.7692 11.6061 26.7692C11.5525 26.7692 11.4989 26.7424 11.4721 26.7424C11.4185 26.7424 11.3649 26.7156 11.3113 26.7156C11.2577 26.7156 11.2041 26.6888 11.1505 26.662H11.1237C11.0969 26.662 11.0969 26.662 11.0701 26.6352C11.0701 26.6352 11.0701 26.6352 11.0433 26.6352C10.7484 26.5816 10.5608 26.3941 10.4804 26.1261ZM10.8556 27.1711H10.8824C10.9092 27.1711 10.9361 27.1711 10.9629 27.1979C11.0165 27.2246 11.0969 27.2246 11.1505 27.2514C11.2041 27.2782 11.2845 27.2782 11.3381 27.305C11.3917 27.305 11.4453 27.3318 11.4989 27.3318C11.767 27.3854 12.035 27.3854 12.3031 27.3854C13.3484 27.3854 14.3134 27.0639 15.1443 26.4477C15.9484 25.8582 16.5917 25.0008 16.8866 24.0363C17.0474 23.554 17.1278 23.045 17.1278 22.5359C17.1278 22.0269 17.0474 21.5178 16.8866 21.0355C16.5649 20.071 15.9484 19.2136 15.1443 18.6242C15.0639 18.5706 15.0103 18.517 14.9299 18.4902C14.6618 18.3027 14.367 18.1687 14.0453 18.0347C14.0185 18.0079 13.9649 18.0079 13.9381 17.9812H13.9113C13.6969 17.9008 13.4824 17.8472 13.2412 17.7936C12.8391 17.7132 12.5711 17.3649 12.5711 16.9362C12.5711 16.6683 12.6783 16.4272 12.8927 16.2664C13.0804 16.1324 13.2948 16.0521 13.5092 16.0789C13.5629 16.0789 13.5897 16.1057 13.6433 16.1057C13.7237 16.1057 13.8041 16.1324 13.8845 16.1592C13.9381 16.1592 13.9917 16.186 14.0453 16.186C14.0989 16.2128 14.1793 16.2128 14.2329 16.2396C14.2866 16.2664 14.367 16.2932 14.4206 16.2932C14.5278 16.32 14.6618 16.3736 14.769 16.4272C15.0371 16.5343 15.2783 16.6415 15.5196 16.7755C15.5732 16.8023 15.6268 16.8291 15.6804 16.8559C15.7608 16.9094 15.868 16.963 15.9484 17.0166C16.0288 17.0702 16.1092 17.1238 16.1897 17.1774C17.3154 17.9812 18.1463 19.16 18.5752 20.4729C18.7896 21.1159 18.8969 21.8125 18.8969 22.5091C18.8969 23.2057 18.7896 23.9024 18.5752 24.5454C18.5484 24.599 18.5216 24.6793 18.5216 24.7329C18.4948 24.7865 18.468 24.8669 18.4412 24.9205C18.4144 24.9741 18.3876 25.0544 18.3608 25.108C18.2804 25.3224 18.1732 25.5367 18.0659 25.7243C18.0391 25.7778 17.9855 25.8582 17.9587 25.9118C17.9051 25.9922 17.8515 26.0994 17.7711 26.1797C17.7175 26.2333 17.6907 26.3137 17.6371 26.3673C17.5835 26.4477 17.5031 26.5548 17.4226 26.6352C17.369 26.7156 17.2886 26.796 17.235 26.8496C17.2082 26.8763 17.1814 26.9299 17.1546 26.9567C17.0742 27.0371 16.9938 27.1175 16.9134 27.1979C16.6989 27.4122 16.4309 27.6265 16.1897 27.8141C15.0639 28.6447 13.7237 29.0733 12.3299 29.0733C10.936 29.0733 9.59583 28.6447 8.47006 27.8141C7.71955 27.2514 7.04944 26.528 6.59377 25.7243C6.45975 25.5099 6.45976 25.242 6.54018 25.0008C6.64739 24.7597 6.83502 24.5722 7.10306 24.4918C7.18347 24.465 7.29069 24.4382 7.3711 24.4382C7.66594 24.4382 7.96079 24.599 8.12161 24.8669C8.47006 25.4831 8.92574 26.019 9.48863 26.4209C9.89069 26.796 10.3732 27.0371 10.8556 27.1711ZM18.468 28.9126C18.2804 29.1001 18.0391 29.1805 17.7711 29.1537C17.5031 29.1269 17.2886 28.993 17.1278 28.8054C16.8598 28.4571 16.9134 27.9748 17.235 27.6533C17.2618 27.6265 17.2618 27.6265 17.2886 27.5997C17.3422 27.5462 17.4226 27.4658 17.4763 27.3854C17.5835 27.2782 17.6639 27.1711 17.7443 27.0639C17.8247 26.9567 17.9319 26.8495 18.0123 26.7424C18.0659 26.662 18.1195 26.5816 18.1732 26.5012C18.2268 26.4477 18.2536 26.3673 18.3072 26.2869C18.334 26.2333 18.3876 26.1797 18.4144 26.0994C18.4412 26.0458 18.468 26.019 18.4948 25.9654C18.5216 25.9118 18.5752 25.8314 18.602 25.7778C18.6288 25.751 18.6288 25.6975 18.6556 25.6707C18.7092 25.5903 18.736 25.4831 18.7896 25.4027C18.8969 25.1884 18.9773 24.9741 19.0309 24.7597C19.2721 24.0631 19.3793 23.3129 19.3793 22.5627C19.3793 21.8125 19.2721 21.0623 19.0309 20.3657C18.5752 18.9457 17.6639 17.6864 16.4577 16.8023C16.3773 16.7487 16.2969 16.6683 16.1897 16.6147C16.1629 16.5879 16.136 16.5611 16.0824 16.5611C15.8948 16.454 15.7072 16.3468 15.5196 16.2396C15.4659 16.2128 15.4123 16.186 15.3587 16.1592C15.1979 16.0789 15.0639 15.9985 14.8763 15.9449C14.8226 15.9181 14.769 15.8913 14.7154 15.8913C14.635 15.8645 14.5546 15.8377 14.4742 15.8109C14.4206 15.8109 14.3938 15.7841 14.3402 15.7573C14.233 15.7305 14.0989 15.677 13.9649 15.6502C13.8845 15.6234 13.8041 15.5966 13.7237 15.5966H13.6969C13.6701 15.5966 13.6701 15.5966 13.6433 15.5966C13.6165 15.5966 13.5897 15.5966 13.5897 15.5966C13.4824 15.5698 13.3752 15.5698 13.268 15.543C12.8391 15.4894 12.5175 15.1143 12.5175 14.6856C12.5175 14.4445 12.6247 14.2034 12.8123 14.0426C12.9732 13.9087 13.1876 13.8283 13.402 13.8283C13.4556 13.8283 13.4824 13.8283 13.536 13.8283C14.9567 14.0426 16.2969 14.5785 17.4763 15.4358C18.9773 16.5343 20.1299 18.1151 20.6927 19.8566C20.9876 20.7408 21.1216 21.6517 21.1216 22.5895C21.1216 23.5272 20.9876 24.4382 20.6927 25.3224C20.2907 26.662 19.5134 27.8945 18.468 28.9126Z" fill="white"/>
<path d="M25.0618 14.3905C24.6062 11.9524 22.9175 9.9429 20.666 9.03195C19.835 8.68364 18.9237 8.49609 17.9588 8.49609H7.23711C6.27216 8.49609 5.36083 8.68364 4.5299 9.03195C1.87629 10.1037 0 12.7026 0 15.7301V29.1265C0 32.1541 1.87629 34.753 4.5299 35.8247C5.36083 36.173 6.27216 36.3606 7.23711 36.3606H17.9588C18.9237 36.3606 19.835 36.173 20.666 35.8247C23.3196 34.753 25.1959 32.1541 25.1959 29.1265V15.7301C25.1959 15.2747 25.1423 14.8192 25.0618 14.3905ZM21.8186 33.7349C20.7732 34.619 19.433 35.1281 17.9588 35.1281H7.23711C5.76288 35.1281 4.42267 34.5922 3.37731 33.7349C2.06391 32.6364 1.20618 30.9752 1.20618 29.1265V15.7301C1.20618 13.8814 2.06391 12.2203 3.37731 11.1218C4.42267 10.2376 5.76288 9.72855 7.23711 9.72855H17.9588C19.433 9.72855 20.7732 10.2644 21.8186 11.1218C23.132 12.2203 23.9897 13.8814 23.9897 15.7301V29.1265C23.9897 30.9752 23.1588 32.6364 21.8186 33.7349Z" fill="black"/>
<path d="M25.1959 19.7489H24.9547C24.499 19.7489 24.1506 19.4006 24.1506 18.9451V15.1942C24.1506 14.7387 24.499 14.3904 24.9547 14.3904H25.1959C25.6516 14.3904 26.0001 14.7387 26.0001 15.1942V18.9451C26.0001 19.4006 25.6516 19.7489 25.1959 19.7489Z" fill="black"/>
<path d="M24.8207 29.1801C24.365 29.1801 24.0166 28.8318 24.0166 28.3763V23.2857C24.0166 22.8302 24.365 22.4819 24.8207 22.4819C25.2764 22.4819 25.6248 22.8302 25.6248 23.2857V28.3763C25.6248 28.8318 25.2496 29.1801 24.8207 29.1801Z" fill="black"/>
<path d="M20.5051 11.7915C19.7814 11.3092 18.8968 11.0413 17.9587 11.0413H7.23705C6.2989 11.0413 5.41437 11.3092 4.69065 11.7915C3.40406 12.622 2.54633 14.0956 2.54633 15.73V29.1264C2.54633 30.7875 3.40406 32.2343 4.69065 33.0649C5.41437 33.5472 6.2989 33.8151 7.23705 33.8151H17.9587C18.8968 33.8151 19.7814 33.5472 20.5051 33.0649C21.7917 32.2343 22.6494 30.7875 22.6494 29.1264V15.73C22.6494 14.0688 21.7917 12.622 20.5051 11.7915ZM10.4803 26.1256C10.3999 25.8577 10.4267 25.5629 10.6144 25.3218C10.7752 25.1075 11.0432 24.9735 11.3113 24.9735C11.3917 24.9735 11.4989 24.9735 11.5793 25.0271C11.7937 25.0807 12.035 25.1075 12.2762 25.1075C12.8123 25.1075 13.3484 24.9467 13.7773 24.6252C14.2061 24.3037 14.5546 23.8482 14.7154 23.3391C14.7958 23.0712 14.8494 22.8301 14.8494 22.5354C14.8494 22.2674 14.7958 21.9995 14.7154 21.7584C14.5546 21.2493 14.2329 20.7938 13.7773 20.4723C13.5896 20.3383 13.3752 20.2044 13.1607 20.1508C12.7855 20.0168 12.5711 19.6953 12.5711 19.3202C12.5711 19.0255 12.7051 18.7844 12.9463 18.6236C13.1608 18.4628 13.4288 18.4093 13.67 18.4896C13.6968 18.4896 13.7236 18.5164 13.7504 18.5164C13.8577 18.5432 13.9381 18.5968 14.0185 18.6236C14.0989 18.6772 14.2061 18.704 14.2865 18.7576C14.3669 18.8112 14.4474 18.8379 14.5278 18.8915C14.5546 18.8915 14.5546 18.9183 14.5814 18.9183C14.6618 18.9719 14.7422 19.0255 14.8226 19.0791C15.5463 19.6149 16.1092 20.3651 16.3772 21.2225C16.5113 21.6512 16.5917 22.0799 16.5917 22.5354C16.5917 22.9908 16.5113 23.4463 16.3772 23.875C16.1092 24.7324 15.5463 25.4826 14.8226 26.0184C14.0989 26.5543 13.2144 26.849 12.303 26.849C12.1958 26.849 12.0618 26.849 11.9546 26.8222C11.901 26.8222 11.8474 26.8222 11.7937 26.7954C11.7401 26.7954 11.6597 26.7686 11.6061 26.7686C11.5525 26.7686 11.4989 26.7418 11.4721 26.7418C11.4185 26.7418 11.3649 26.715 11.3113 26.715C11.2577 26.715 11.204 26.6882 11.1504 26.6614H11.1236C11.0968 26.6614 11.0968 26.6614 11.07 26.6346C11.07 26.6346 11.07 26.6346 11.0432 26.6346C10.7484 26.5811 10.5608 26.3935 10.4803 26.1256ZM10.8556 27.1705H10.8824C10.9092 27.1705 10.936 27.1705 10.9628 27.1973C11.0164 27.2241 11.0968 27.2241 11.1504 27.2509C11.204 27.2777 11.2845 27.2777 11.3381 27.3045C11.3917 27.3045 11.4453 27.3313 11.4989 27.3313C11.7669 27.3848 12.035 27.3848 12.303 27.3848C13.3484 27.3848 14.3133 27.0633 15.1443 26.4471C15.9484 25.8577 16.5917 25.0003 16.8865 24.0357C17.0474 23.5535 17.1278 23.0444 17.1278 22.5354C17.1278 22.0263 17.0474 21.5172 16.8865 21.035C16.5649 20.0704 15.9484 19.213 15.1443 18.6236C15.0638 18.57 15.0102 18.5164 14.9298 18.4896C14.6618 18.3021 14.3669 18.1681 14.0453 18.0342C14.0185 18.0074 13.9649 18.0074 13.9381 17.9806H13.9113C13.6968 17.9002 13.4824 17.8466 13.2412 17.793C12.8391 17.7127 12.5711 17.3644 12.5711 16.9357C12.5711 16.6677 12.6783 16.4266 12.8927 16.2658C13.0803 16.1319 13.2948 16.0515 13.5092 16.0783C13.5628 16.0783 13.5896 16.1051 13.6432 16.1051C13.7236 16.1051 13.8041 16.1319 13.8845 16.1587C13.9381 16.1587 13.9917 16.1855 14.0453 16.1855C14.0989 16.2123 14.1793 16.2123 14.2329 16.2391C14.2865 16.2659 14.3669 16.2926 14.4205 16.2926C14.5278 16.3194 14.6618 16.373 14.769 16.4266C15.037 16.5338 15.2783 16.641 15.5195 16.7749C15.5731 16.8017 15.6267 16.8285 15.6803 16.8553C15.7608 16.9089 15.868 16.9625 15.9484 17.016C16.0288 17.0696 16.1092 17.1232 16.1896 17.1768C17.3154 17.9806 18.1463 19.1595 18.5752 20.4723C18.7896 21.1153 18.8968 21.8119 18.8968 22.5086C18.8968 23.2052 18.7896 23.9018 18.5752 24.5448C18.5484 24.5984 18.5216 24.6788 18.5216 24.7324C18.4948 24.7859 18.468 24.8663 18.4412 24.9199C18.4144 24.9735 18.3876 25.0539 18.3608 25.1075C18.2803 25.3218 18.1731 25.5361 18.0659 25.7237C18.0391 25.7773 17.9855 25.8577 17.9587 25.9112C17.9051 25.9916 17.8515 26.0988 17.7711 26.1792C17.7175 26.2328 17.6906 26.3131 17.637 26.3667C17.5834 26.4471 17.503 26.5543 17.4226 26.6346C17.369 26.715 17.2886 26.7954 17.235 26.849C17.2082 26.8758 17.1814 26.9294 17.1546 26.9562C17.0742 27.0365 16.9937 27.1169 16.9133 27.1973C16.6989 27.4116 16.4309 27.626 16.1896 27.8135C15.0639 28.6441 13.7236 29.0728 12.3298 29.0728C10.936 29.0728 9.5958 28.6441 8.47003 27.8135C7.71951 27.2509 7.04941 26.5275 6.59374 25.7237C6.45972 25.5093 6.45973 25.2414 6.54015 25.0003C6.64736 24.7591 6.83498 24.5716 7.10303 24.4912C7.18344 24.4644 7.29065 24.4376 7.37107 24.4376C7.66591 24.4376 7.96075 24.5984 8.12158 24.8663C8.47003 25.4825 8.92571 26.0184 9.4886 26.4203C9.89066 26.7954 10.3731 27.0365 10.8556 27.1705ZM18.468 28.912C18.2803 29.0996 18.0391 29.1799 17.7711 29.1532C17.503 29.1264 17.2886 28.9924 17.1278 28.8049C16.8597 28.4565 16.9133 27.9743 17.235 27.6528C17.2618 27.626 17.2618 27.626 17.2886 27.5992C17.3422 27.5456 17.4226 27.4652 17.4762 27.3848C17.5834 27.2777 17.6639 27.1705 17.7443 27.0633C17.8247 26.9562 17.9319 26.849 18.0123 26.7418C18.0659 26.6614 18.1195 26.5811 18.1731 26.5007C18.2267 26.4471 18.2535 26.3667 18.3071 26.2863C18.3339 26.2328 18.3876 26.1792 18.4144 26.0988C18.4412 26.0452 18.468 26.0184 18.4948 25.9648C18.5216 25.9112 18.5752 25.8309 18.602 25.7773C18.6288 25.7505 18.6288 25.6969 18.6556 25.6701C18.7092 25.5897 18.736 25.4825 18.7896 25.4022C18.8968 25.1878 18.9772 24.9735 19.0309 24.7592C19.2721 24.0625 19.3793 23.3123 19.3793 22.5621C19.3793 21.8119 19.2721 21.0617 19.0309 20.3651C18.5752 18.9451 17.6639 17.6859 16.4577 16.8017C16.3773 16.7481 16.2968 16.6677 16.1896 16.6141C16.1628 16.5874 16.136 16.5606 16.0824 16.5606C15.8948 16.4534 15.7072 16.3462 15.5195 16.2391C15.4659 16.2123 15.4123 16.1855 15.3587 16.1587C15.1979 16.0783 15.0638 15.9979 14.8762 15.9443C14.8226 15.9175 14.769 15.8907 14.7154 15.8907C14.635 15.8639 14.5546 15.8372 14.4742 15.8104C14.4205 15.8104 14.3937 15.7836 14.3401 15.7568C14.2329 15.73 14.0989 15.6764 13.9649 15.6496C13.8845 15.6228 13.8041 15.596 13.7236 15.596H13.6968C13.67 15.596 13.67 15.596 13.6432 15.596C13.6164 15.596 13.5896 15.596 13.5896 15.596C13.4824 15.5692 13.3752 15.5692 13.268 15.5424C12.8391 15.4889 12.5175 15.1138 12.5175 14.6851C12.5175 14.4439 12.6247 14.2028 12.8123 14.0421C12.9731 13.9081 13.1876 13.8277 13.402 13.8277C13.4556 13.8277 13.4824 13.8277 13.536 13.8277C14.9566 14.0421 16.2968 14.5779 17.4762 15.4353C18.9773 16.5338 20.1298 18.1146 20.6927 19.8561C20.9876 20.7402 21.1216 21.6512 21.1216 22.5889C21.1216 23.5267 20.9876 24.4376 20.6927 25.3218C20.2907 26.6614 19.5133 27.8939 18.468 28.912Z" fill="black"/>
</g>
</svg>
